<svg width="18" height="18" viewBox="0 0 18 18" fill="none" xmlns="http://www.w3.org/2000/svg">
<g clip-path="url(#clip0_43_2240)">
<path d="M9.74901 0.750313C9.74901 0.5514 9.82803 0.360635 9.96868 0.219983C10.1093 0.0793304 10.3001 0.000312716 10.499 0.000312716C12.4875 0.00249641 14.3939 0.793374 15.7999 2.19942C17.206 3.60547 17.9968 5.51186 17.999 7.50031C17.999 7.69923 17.92 7.88999 17.7793 8.03064C17.6387 8.1713 17.4479 8.25031 17.249 8.25031C17.0501 8.25031 16.8593 8.1713 16.7187 8.03064C16.578 7.88999 16.499 7.69923 16.499 7.50031C16.4972 5.90956 15.8645 4.38448 14.7397 3.25964C13.6148 2.13481 12.0898 1.5021 10.499 1.50031C10.3001 1.50031 10.1093 1.4213 9.96868 1.28064C9.82803 1.13999 9.74901 0.949225 9.74901 0.750313ZM10.499 4.50031C11.2947 4.50031 12.0577 4.81638 12.6203 5.37899C13.1829 5.9416 13.499 6.70466 13.499 7.50031C13.499 7.69923 13.578 7.88999 13.7187 8.03064C13.8593 8.1713 14.0501 8.25031 14.249 8.25031C14.4479 8.25031 14.6387 8.1713 14.7793 8.03064C14.92 7.88999 14.999 7.69923 14.999 7.50031C14.9978 6.3072 14.5233 5.1633 13.6797 4.31965C12.836 3.47599 11.6921 3.0015 10.499 3.00031C10.3001 3.00031 10.1093 3.07933 9.96868 3.21998C9.82803 3.36064 9.74901 3.5514 9.74901 3.75031C9.74901 3.94922 9.82803 4.13999 9.96868 4.28064C10.1093 4.42129 10.3001 4.50031 10.499 4.50031ZM17.3188 12.5546C17.7534 12.9904 17.9975 13.5808 17.9975 14.1963C17.9975 14.8118 17.7534 15.4022 17.3188 15.8381L16.6363 16.6248C10.4938 22.5056 -4.45374 7.56181 1.33626 1.39981L2.19876 0.649813C2.63509 0.227321 3.22021 -0.00640047 3.82754 -0.000786153C4.43487 0.00482817 5.01557 0.249327 5.44401 0.679813C5.46726 0.703063 6.85701 2.50831 6.85701 2.50831C7.26938 2.94153 7.49894 3.51701 7.49796 4.11512C7.49699 4.71322 7.26555 5.28794 6.85176 5.71981L5.98326 6.81181C6.4639 7.97965 7.17056 9.041 8.06264 9.93488C8.95473 10.8288 10.0147 11.5376 11.1815 12.0206L12.2803 11.1468C12.7122 10.7333 13.2868 10.5022 13.8847 10.5013C14.4827 10.5005 15.0579 10.7301 15.491 11.1423C15.491 11.1423 17.2955 12.5313 17.3188 12.5546ZM16.2868 13.6451C16.2868 13.6451 14.492 12.2643 14.4688 12.2411C14.3143 12.0879 14.1055 12.0019 13.8879 12.0019C13.6703 12.0019 13.4615 12.0879 13.307 12.2411C13.2868 12.2621 11.774 13.4673 11.774 13.4673C11.6721 13.5485 11.5507 13.6016 11.422 13.6216C11.2932 13.6416 11.1615 13.6277 11.0398 13.5813C9.52811 13.0185 8.15506 12.1374 7.01364 10.9976C5.87221 9.85788 4.98906 8.48614 4.42401 6.97531C4.37391 6.8519 4.35758 6.71738 4.37669 6.58557C4.3958 6.45375 4.44967 6.32941 4.53276 6.22531C4.53276 6.22531 5.73801 4.71181 5.75826 4.69231C5.91146 4.5378 5.99742 4.32902 5.99742 4.11144C5.99742 3.89385 5.91146 3.68507 5.75826 3.53056C5.73501 3.50806 4.35426 1.71181 4.35426 1.71181C4.19744 1.57119 3.99277 1.49588 3.7822 1.50132C3.57163 1.50676 3.37112 1.59254 3.22176 1.74106L2.35926 2.49106C-1.87224 7.57906 11.081 19.8138 15.5398 15.6003L16.223 14.8128C16.3831 14.6645 16.4793 14.4598 16.4912 14.2418C16.5031 14.0239 16.4298 13.8099 16.2868 13.6451Z" fill="#B50717"/>
</g>
<defs>
<clipPath id="clip0_43_2240">
<rect width="18" height="18" fill="white"/>
</clipPath>
</defs>
</svg>
