<svg width="18" height="18" viewBox="0 0 18 18" fill="none" xmlns="http://www.w3.org/2000/svg">
<g clip-path="url(#clip0_43_2251)">
<path d="M8.99805 4.5C8.4047 4.5 7.82469 4.67595 7.33134 5.00559C6.83799 5.33524 6.45347 5.80377 6.22641 6.35195C5.99935 6.90013 5.93994 7.50333 6.05569 8.08527C6.17145 8.66721 6.45717 9.20176 6.87673 9.62132C7.29629 10.0409 7.83083 10.3266 8.41278 10.4424C8.99472 10.5581 9.59792 10.4987 10.1461 10.2716C10.6943 10.0446 11.1628 9.66006 11.4925 9.16671C11.8221 8.67336 11.998 8.09334 11.998 7.5C11.998 6.70435 11.682 5.94129 11.1194 5.37868C10.5568 4.81607 9.7937 4.5 8.99805 4.5ZM8.99805 9C8.70138 9 8.41137 8.91203 8.16469 8.7472C7.91802 8.58238 7.72576 8.34811 7.61223 8.07403C7.4987 7.79994 7.46899 7.49834 7.52687 7.20736C7.58475 6.91639 7.72761 6.64912 7.93739 6.43934C8.14717 6.22956 8.41444 6.0867 8.70541 6.02882C8.99638 5.97094 9.29798 6.00065 9.57207 6.11418C9.84616 6.22771 10.0804 6.41997 10.2453 6.66665C10.4101 6.91332 10.498 7.20333 10.498 7.5C10.498 7.89783 10.34 8.27936 10.0587 8.56066C9.7774 8.84196 9.39587 9 8.99805 9Z" fill="#B50717"/>
<path d="M8.99633 17.9995C8.36479 18.0028 7.74166 17.8547 7.17913 17.5676C6.61659 17.2805 6.13102 16.8628 5.76308 16.3495C2.90483 12.4068 1.45508 9.4428 1.45508 7.5393C1.45508 5.53923 2.2496 3.62109 3.66386 2.20683C5.07812 0.792569 6.99626 -0.00195312 8.99633 -0.00195312C10.9964 -0.00195312 12.9145 0.792569 14.3288 2.20683C15.7431 3.62109 16.5376 5.53923 16.5376 7.5393C16.5376 9.4428 15.0878 12.4068 12.2296 16.3495C11.8616 16.8628 11.3761 17.2805 10.8135 17.5676C10.251 17.8547 9.62787 18.0028 8.99633 17.9995ZM8.99633 1.6353C7.43064 1.63708 5.92959 2.25984 4.82248 3.36695C3.71537 4.47406 3.09261 5.97511 3.09083 7.5408C3.09083 9.0483 4.51058 11.836 7.08758 15.3903C7.30635 15.6916 7.59336 15.9369 7.92511 16.106C8.25687 16.2751 8.62395 16.3633 8.99633 16.3633C9.3687 16.3633 9.73579 16.2751 10.0675 16.106C10.3993 15.9369 10.6863 15.6916 10.9051 15.3903C13.4821 11.836 14.9018 9.0483 14.9018 7.5408C14.9 5.97511 14.2773 4.47406 13.1702 3.36695C12.0631 2.25984 10.562 1.63708 8.99633 1.6353Z" fill="#B50717"/>
</g>
<defs>
<clipPath id="clip0_43_2251">
<rect width="18" height="18" fill="white"/>
</clipPath>
</defs>
</svg>
