<svg width="71" height="38" viewBox="0 0 71 38" fill="none" xmlns="http://www.w3.org/2000/svg">
<path d="M55.5456 20.024C55.8782 19.6915 55.8782 19.1523 55.5456 18.8197L50.1263 13.4004C49.7938 13.0679 49.2546 13.0679 48.922 13.4004C48.5895 13.733 48.5895 14.2722 48.922 14.6047L53.7392 19.4219L48.922 24.239C48.5895 24.5716 48.5895 25.1108 48.922 25.4433C49.2546 25.7759 49.7938 25.7759 50.1263 25.4433L55.5456 20.024ZM7.50735e-08 20.2734L54.9435 20.2734L54.9435 18.5703L-7.50735e-08 18.5703L7.50735e-08 20.2734Z" fill="#F4B346"/>
<mask id="path-2-inside-1_94_10917" fill="white">
<path d="M38.5314 32.435C41.1913 35.0922 44.5801 36.9018 48.2694 37.6349C51.9587 38.368 55.7828 37.9918 59.2581 36.5537C62.7333 35.1156 65.7036 32.6804 67.7935 29.5558C69.8833 26.4313 70.9987 22.7578 70.9987 19C70.9987 15.2422 69.8833 11.5687 67.7935 8.44417C65.7036 5.31963 62.7333 2.88435 59.2581 1.44629C55.7828 0.00822384 51.9587 -0.36804 48.2694 0.36508C44.5801 1.0982 41.1913 2.90777 38.5314 5.56497L39.6374 6.66979C42.0785 4.2311 45.1886 2.57034 48.5746 1.89751C51.9605 1.22467 55.4701 1.57 58.6595 2.8898C61.849 4.20961 64.5751 6.44462 66.493 9.31222C68.411 12.1798 69.4347 15.5512 69.4347 19C69.4347 22.4488 68.411 25.8202 66.493 28.6878C64.5751 31.5554 61.849 33.7904 58.6595 35.1102C55.4701 36.43 51.9605 36.7753 48.5746 36.1025C45.1886 35.4297 42.0785 33.7689 39.6374 31.3302L38.5314 32.435Z"/>
</mask>
<path d="M38.5314 32.435C41.1913 35.0922 44.5801 36.9018 48.2694 37.6349C51.9587 38.368 55.7828 37.9918 59.2581 36.5537C62.7333 35.1156 65.7036 32.6804 67.7935 29.5558C69.8833 26.4313 70.9987 22.7578 70.9987 19C70.9987 15.2422 69.8833 11.5687 67.7935 8.44417C65.7036 5.31963 62.7333 2.88435 59.2581 1.44629C55.7828 0.00822384 51.9587 -0.36804 48.2694 0.36508C44.5801 1.0982 41.1913 2.90777 38.5314 5.56497L39.6374 6.66979C42.0785 4.2311 45.1886 2.57034 48.5746 1.89751C51.9605 1.22467 55.4701 1.57 58.6595 2.8898C61.849 4.20961 64.5751 6.44462 66.493 9.31222C68.411 12.1798 69.4347 15.5512 69.4347 19C69.4347 22.4488 68.411 25.8202 66.493 28.6878C64.5751 31.5554 61.849 33.7904 58.6595 35.1102C55.4701 36.43 51.9605 36.7753 48.5746 36.1025C45.1886 35.4297 42.0785 33.7689 39.6374 31.3302L38.5314 32.435Z" stroke="#F4B346" stroke-width="1.70312" mask="url(#path-2-inside-1_94_10917)"/>
</svg>
