<svg width="459" height="411" viewBox="0 0 459 411" fill="none" xmlns="http://www.w3.org/2000/svg">
<g clip-path="url(#clip0_12_22934)">
<path d="M33.2006 295C-20.6994 228.4 -7.19941 113.1 60.2006 49.2002C141.301 -27.6998 261.001 7.20021 278.301 12.3002C366.701 38.1002 450.301 115.6 458.201 210.4C462.701 264 444.401 338.7 398.601 357.1C365.001 370.6 346.101 341.9 272.001 342.5C216.501 342.9 210.201 359 165.901 356.6C157.201 356.1 78.2006 350.6 33.2006 295Z" fill="#FAFAFA"/>
<path d="M301.899 327.9L301.199 327.1C335.299 290.8 349.499 235.2 349.599 234.7L350.699 234.8C350.599 235.3 336.299 291.2 301.899 327.9Z" fill="#223242"/>
<path d="M349 235.9C349 235.9 351 200.5 360.4 176.5C363.6 168.2 367.4 161.2 370.9 155.7C370.9 155.7 372.6 199.8 349 235.9Z" fill="#80BA91"/>
<path d="M370.898 155.7C370.898 155.7 361.998 172.3 361.698 193.4C361.398 214.4 364.298 230 337.898 259.3C337.898 259.3 351.698 181.6 370.898 155.7Z" fill="#223242"/>
<path d="M318.894 311.9C315.694 310.6 320.294 290.2 329.794 271.9C340.594 250.9 348.794 250.1 360.094 228.5C370.394 208.9 365.994 205.1 374.794 191.3C391.394 165.2 421.794 156 422.494 159.1C422.994 161 412.494 165.7 405.294 179.3C396.994 194.9 403.294 202.6 397.894 218C391.694 235.7 379.394 237 355.294 264.2C331.294 291 318.894 311.9 318.894 311.9Z" fill="#80BA91"/>
<path d="M318.898 311.9C318.898 311.9 355.198 279.6 390.798 230.2C390.798 230.2 346.898 258.9 318.898 311.9Z" fill="#223242"/>
<path d="M311.297 329.6C313.597 317.8 320.197 305.5 320.297 305.4C329.797 281.3 341.597 261.7 355.497 247.1C356.797 245.7 358.097 244.4 359.497 243C365.897 236.6 372.497 229.9 377.497 218.8C380.197 212.8 380.997 208.4 381.897 204.2C382.697 199.9 383.497 195.9 386.097 190.4C391.097 179.8 400.097 170.4 412.697 162.5L413.097 163.6C400.697 171.4 391.997 180.6 387.097 190.9C384.597 196.1 383.797 200.1 382.997 204.3C382.197 208.6 381.297 213 378.497 219.2C373.397 230.6 366.697 237.3 360.197 243.9C358.897 245.3 357.497 246.6 356.197 247.9C342.397 262.4 330.697 281.8 321.197 305.8C321.097 306 314.497 318.1 312.297 329.6H311.297Z" fill="#223242"/>
<path d="M314 321C314 321 364.9 282.2 402.9 261.8L370.1 264.4L333.6 293.4L314 321Z" fill="#223242"/>
<path d="M314 321C322.7 303.1 331.8 292.4 338.4 286C348 276.7 353.5 275.4 366.3 262.7C377.7 251.4 379.3 246.5 385.2 241.2C394.3 232.9 410 226.9 438.7 238.7C438.7 238.7 434.2 237.1 429.1 239.6C424 242.1 408.4 263.2 392 266.1C375.6 269 359.3 271.1 341 289.8C322.8 308.4 314 321 314 321Z" fill="#80BA91"/>
<path d="M309.4 330.4L308.5 329.9L313.6 320.8C329.4 292.8 350 279.5 369.9 266.6C377.7 261.6 385 256.8 391.8 251.3C415.7 232 428.5 236.5 429.1 236.7L428.6 237.9C428.5 237.9 415.7 233.4 392.4 252.2C385.6 257.7 378.2 262.5 370.4 267.6C350.6 280.4 330.2 293.6 314.6 321.3L309.4 330.4Z" fill="#223242"/>
<path d="M162.398 339.8L163.298 339.1C137.198 296.7 134.498 239.4 134.498 238.8L133.398 238.7C133.398 239.3 136.098 297 162.398 339.8Z" fill="#223242"/>
<path d="M134.701 240.2C134.701 240.2 139.901 205.2 135.501 179.8C134.001 171 131.701 163.4 129.401 157.3C129.401 157.2 119.001 200.2 134.701 240.2Z" fill="#80BA91"/>
<path d="M129.399 157.2C129.399 157.2 134.699 175.3 130.799 196C126.899 216.7 120.899 231.3 140.799 265.3C140.899 265.3 142.999 186.5 129.399 157.2Z" fill="#223242"/>
<path d="M148.999 320.8C152.399 320.2 151.999 299.3 146.399 279.4C139.999 256.7 132.199 254.2 125.499 230.8C119.399 209.5 124.399 206.6 118.599 191.4C107.599 162.5 79.699 147.3 78.299 150.2C77.499 151.9 86.699 158.7 91.099 173.4C96.099 190.3 88.399 196.6 90.599 212.8C93.099 231.4 104.899 235.1 122.999 266.6C140.999 297.8 148.999 320.8 148.999 320.8Z" fill="#80BA91"/>
<path d="M149 320.8C149 320.8 119.9 281.9 95 226.3C95 226.3 132.2 263.1 149 320.8Z" fill="#223242"/>
<path d="M152.799 339.6C152.999 327.6 148.899 314.2 148.899 314.1C144.499 288.6 136.799 267 126.099 249.9C125.099 248.3 124.099 246.7 122.999 245.1C117.999 237.5 112.899 229.7 110.299 217.8C108.899 211.4 108.899 206.9 108.999 202.6C108.999 198.2 109.099 194.1 107.699 188.3C104.899 176.9 97.9992 165.9 87.2992 155.6L86.6992 156.6C97.2992 166.7 103.999 177.5 106.699 188.5C108.099 194.1 107.999 198.2 107.999 202.4C107.999 206.8 107.899 211.3 109.399 217.9C112.099 230.1 117.299 238 122.299 245.7C123.299 247.3 124.399 248.9 125.399 250.5C135.999 267.4 143.599 288.9 147.999 314.3C148.099 314.5 151.999 327.7 151.899 339.4L152.799 339.6Z" fill="#223242"/>
<path d="M151.897 330.6C151.897 330.6 109.797 282.4 76.7969 254.7L108.397 263.9L138.297 299.7L151.897 330.6Z" fill="#223242"/>
<path d="M151.898 330.6C146.998 311.3 140.298 299 134.998 291.4C127.398 280.4 122.298 278 112.398 263C103.498 249.6 102.898 244.5 98.2984 238.1C91.0984 228.1 76.8984 219.1 46.3984 224.9C46.3984 224.9 51.0984 224.2 55.5984 227.7C60.0984 231.2 71.0984 255 86.5984 261.1C102.098 267.2 117.698 272.6 131.798 294.5C145.798 316.5 151.898 330.6 151.898 330.6Z" fill="#80BA91"/>
<path d="M154.599 340.7L155.599 340.4L152.399 330.4C142.599 299.8 125.099 282.6 108.199 266C101.599 259.5 95.2992 253.4 89.7992 246.6C70.2992 222.9 56.7992 224.7 56.1992 224.8L56.4992 226.1C56.5992 226.1 69.9992 224.3 89.0992 247.4C94.6992 254.2 100.999 260.4 107.599 266.9C124.399 283.4 141.699 300.5 151.399 330.7L154.599 340.7Z" fill="#223242"/>
<path opacity="0.52" d="M237.598 391.7C289.236 391.7 331.098 389.148 331.098 386C331.098 382.852 289.236 380.3 237.598 380.3C185.959 380.3 144.098 382.852 144.098 386C144.098 389.148 185.959 391.7 237.598 391.7Z" fill="#BBC5D4"/>
<path d="M346.299 105.7C337.299 87.8002 321.699 80.0002 306.599 75.9002C292.899 72.2002 279.099 75.8002 266.999 84.9002C258.699 91.1002 249.399 94.3002 240.099 94.4002C239.299 94.4002 236.099 94.4002 235.299 94.4002C225.999 94.3002 216.699 91.1002 208.399 84.9002C196.199 75.8002 182.499 72.3002 168.799 75.9002C153.699 79.9002 138.099 87.8002 129.099 105.7C113.299 137.1 116.499 183.7 132.199 213.9C135.499 220.3 135.899 228.5 135.499 236.3C134.899 247.5 134.799 258 135.099 269.2C135.499 283 136.499 296.8 138.499 310.4C141.999 333.7 148.899 356.9 162.299 373.1C165.599 377.1 169.299 380.6 173.199 383.6C184.199 391.8 196.299 384.1 201.299 369.4C204.499 360.1 204.999 349.6 205.699 339.4C207.199 316.9 212.999 295.8 231.999 293.1C233.099 293 234.099 292.9 235.199 292.9C235.999 292.9 236.799 293 237.599 293C238.399 292.9 239.199 292.8 239.999 292.9C240.999 292.9 242.099 292.9 243.199 293.1C262.199 295.8 267.999 316.8 269.499 339.4C270.199 349.6 270.699 360.1 273.899 369.4C278.999 384.1 291.099 391.8 301.999 383.6C305.899 380.7 309.599 377.1 312.899 373.1C326.299 356.9 333.199 333.7 336.699 310.4C338.699 296.8 339.699 283 340.099 269.2C340.399 258 340.299 247.5 339.699 236.3C339.299 228.6 339.699 220.3 342.999 213.9C358.899 183.6 362.099 137.1 346.299 105.7Z" fill="white"/>
<path d="M326.898 336.5C311.698 344.7 294.898 337 287.898 322.3C283.498 313 282.698 302.5 281.798 292.3C279.698 269.8 271.598 248.7 245.398 246C243.898 245.9 242.498 245.8 240.998 245.8C239.898 245.8 238.798 245.9 237.698 245.9C236.598 245.8 235.498 245.7 234.398 245.8C232.898 245.8 231.498 245.8 229.998 246C203.698 248.7 195.698 269.7 193.598 292.3C192.698 302.5 191.898 313 187.498 322.3C180.498 337 163.798 344.7 148.498 336.5C146.798 335.6 145.098 334.5 143.398 333.5C147.498 348.4 153.398 362.2 162.298 372.9C165.598 376.9 169.298 380.4 173.198 383.4C184.198 391.6 196.298 383.9 201.298 369.2C204.498 359.9 204.998 349.4 205.698 339.2C207.198 316.7 212.998 295.6 231.998 292.9C233.098 292.8 234.098 292.7 235.198 292.7C235.998 292.7 236.798 292.8 237.598 292.8C238.398 292.7 239.198 292.6 239.998 292.7C240.998 292.7 242.098 292.7 243.198 292.9C262.198 295.6 267.998 316.6 269.498 339.2C270.198 349.4 270.698 359.9 273.898 369.2C278.998 383.9 291.098 391.6 301.998 383.4C305.898 380.5 309.598 376.9 312.898 372.9C321.798 362.2 327.798 348.3 331.798 333.5C330.298 334.5 328.598 335.6 326.898 336.5Z" fill="#BDBDBD"/>
<path d="M237.598 122.3C264.098 122.3 286.698 102.3 294.798 74.5C285.098 74.7 275.598 78.4 266.898 84.8C258.598 91 249.298 94.2 239.998 94.3C239.198 94.3 235.998 94.3 235.198 94.3C225.898 94.2 216.598 91 208.298 84.8C199.598 78.3 190.098 74.7 180.398 74.5C188.598 102.3 211.098 122.3 237.598 122.3Z" fill="#BDBDBD"/>
<path opacity="0.52" d="M98.9031 401.5C98.9031 403.7 84.8031 405.5 67.3031 405.5C49.9031 405.5 35.7031 403.7 35.7031 401.5C35.7031 399.3 49.8031 397.5 67.3031 397.5C84.8031 397.5 98.9031 399.3 98.9031 401.5Z" fill="#BBC5D4"/>
<path d="M50.0008 381.4L39.3008 381.6C40.2008 385.6 41.2008 389.8 42.2008 394L49.6008 393.9L50.0008 381.4Z" fill="#FCC6BA"/>
<path d="M75.8023 379.5L64.4023 379.7L68.5023 391.6L77.0023 388.6C77.0023 388.6 76.6023 385.2 75.8023 379.5Z" fill="#FCC6BA"/>
<path d="M52.3031 392.5H41.6031C41.6031 392.5 39.2031 394.6 38.2031 403.7L60.5031 403.8C60.5031 403.8 61.1031 398.4 55.3031 396.3L52.3031 392.5Z" fill="#223242"/>
<path d="M67.6015 389.7C67.6015 389.7 66.9015 396.8 67.9015 399.7L92.5015 399.9C92.5015 399.9 93.8015 393.6 78.1015 389.7H67.6015Z" fill="#223242"/>
<path d="M44.4 392.8L43 389.6C43 389.6 47.4 387.6 52.6 389.1V393L44.4 392.8Z" fill="#223242"/>
<path d="M73.5016 389.9L72.6016 386.7C72.6016 386.7 75.0016 384.6 78.0016 386L78.1016 389.9H73.5016Z" fill="#223242"/>
<path d="M51.9008 174.6L62.3008 172.7L56.2008 145.1L46.8008 147.1L51.9008 174.6Z" fill="#FCC6BA"/>
<path d="M55.8008 131.3C55.8008 131.3 71.1008 127.7 70.0008 136.2C68.9008 144.8 66.1008 147.5 66.1008 147.5L55.8008 131.3Z" fill="#223242"/>
<path d="M68.3021 142.2C70.0021 149.9 65.2021 157.4 57.8021 159C50.3021 160.6 42.9021 155.8 41.2021 148.1C39.5021 140.4 44.3021 132.9 51.7021 131.3C59.2021 129.7 66.6021 134.6 68.3021 142.2Z" fill="#FCC6BA"/>
<path d="M67.7008 140.2C67.7008 140.2 72.7008 156 66.0008 164.4C65.7008 164.8 65.1008 165.1 64.6008 165.1C61.3008 165.2 46.5008 163.5 42.3008 150.5L67.7008 140.2Z" fill="#FCC6BA"/>
<path d="M56.8009 152.6C56.8009 152.6 68.4009 147.6 69.6009 150.6C69.6009 150.6 70.6009 165.4 64.7009 165.4C54.7009 165.4 56.8009 152.6 56.8009 152.6Z" fill="white"/>
<path d="M53 147.9C53 147.9 55.8 152.4 59.5 154.2" stroke="white" stroke-width="0.75" stroke-miterlimit="10" stroke-linecap="round"/>
<path d="M51.1016 154.7C51.1016 154.7 53.6016 160.5 60.5016 163.1" stroke="white" stroke-width="0.75" stroke-miterlimit="10" stroke-linecap="round"/>
<path d="M65.3008 136.1C65.3008 136.1 60.5008 147.8 52.9008 148.7C52.9008 148.7 49.2008 145.8 48.1008 148.5C47.0008 151.2 48.8008 154.6 51.1008 154.8C51.1008 154.8 49.1008 159.8 49.7008 162.8C49.7008 162.8 44.3008 160.8 42.2008 158.5C39.4008 155.5 37.8008 148 39.0008 141.1C40.4008 132.9 58.8008 123.1 65.3008 136.1Z" fill="#223242"/>
<path d="M45.0004 136.8C44.7004 133.6 41.3004 130.2 37.4004 130.3C34.4004 130.4 32.1004 132.5 31.1004 134.6C29.2004 138.4 30.8004 143.6 33.9004 145C38.1004 147.1 45.5004 142 45.0004 136.8Z" fill="#223242"/>
<path d="M65.1008 135.7C65.1008 135.7 66.9008 140.1 61.8008 144.8" stroke="#223242" stroke-width="0.75" stroke-miterlimit="10" stroke-linecap="round"/>
<path d="M44.0023 136.2C44.0023 136.2 45.3023 129.7 37.9023 129.1" stroke="#223242" stroke-width="0.75" stroke-miterlimit="10" stroke-linecap="round"/>
<path d="M60.6 164.8C60.6 164.8 55.4 163.6 53.5 162.4C53.5 162.4 58.8 166 60.9 166.4L60.6 164.8Z" fill="#223242"/>
<path d="M48.9992 155.5C49.2992 156.3 50.1992 156.7 50.9992 156.3C51.7992 156 52.1992 155.1 51.7992 154.3C51.4992 153.5 50.5992 153.1 49.7992 153.5C49.0992 153.8 48.6992 154.7 48.9992 155.5Z" fill="white"/>
<path d="M86.4988 236.3C69.6988 236.3 42.3988 237.6 42.3988 237.6C41.6988 240.8 42.7988 240 41.0988 243.5C38.4988 248.9 37.6988 255.1 38.8988 261C39.2988 263.1 39.7988 265.4 40.1988 267.5C40.1988 267.5 40.3988 280 40.1988 287.9C39.9988 295.8 37.3988 310 35.5988 317.4C33.8988 324.8 32.8988 331.4 33.2988 340.2C33.6988 349 39.0988 383.4 39.0988 383.4C39.0988 383.4 42.8988 388.2 50.7988 383.4C50.7988 383.4 51.4988 334.2 53.0988 328.7C54.6988 323.2 54.7988 326.5 59.0988 317.8C61.0988 313.9 64.8988 299.2 68.3988 284.3C68.4988 288 68.4988 291.3 68.2988 293.8C67.3988 306 62.6988 322.3 62.2988 327.6C61.7988 332.9 63.5988 380.4 63.5988 380.4C63.5988 380.4 67.9988 385.9 76.7988 381.4C76.7988 381.4 79.5988 336.8 79.3988 331.8C79.1988 326.8 88.8988 311.5 91.2988 298.4C93.7988 285.2 91.6988 248.4 86.4988 236.3Z" fill="#223242"/>
<path d="M48.6017 237.3C48.6017 237.3 44.8017 246.2 46.7017 257.3C48.6017 268.4 45.0017 304.9 40.7017 315.9C36.3017 327 36.5017 343.9 42.4017 384.3" stroke="#B50717" stroke-width="0.75" stroke-miterlimit="10" stroke-linecap="round" stroke-linejoin="round"/>
<path d="M68.5 284.2L74.8 270.1" stroke="#223242" stroke-width="0.75" stroke-miterlimit="10" stroke-linecap="round" stroke-linejoin="round"/>
<path d="M67.1008 382.4C67.1008 382.4 65.3008 333.5 67.1008 327.7C68.9008 321.9 74.7008 299 70.8008 278.8" stroke="#B50717" stroke-width="0.75" stroke-miterlimit="10" stroke-linecap="round" stroke-linejoin="round"/>
<path d="M100.302 225.5C105.802 216.1 106.402 214.8 113.702 198L107.902 195.2L98.0023 207.5C96.8023 205.5 89.2023 194 87.2023 185.9C84.3023 173.8 72.4023 171.5 72.4023 171.5C73.3023 176.4 76.2023 181.8 78.1023 184L76.5023 188.8C79.4023 191.6 89.7023 239.2 100.302 225.5Z" fill="white"/>
<path d="M107.903 195.2L98.0031 207.5C97.2031 206.2 94.5031 201.6 91.2031 195.7C85.7031 197.5 84.6031 201.3 82.7031 205.5C87.4031 218.9 93.8031 234 100.403 225.4C105.903 216 106.203 215.6 114.403 195.9L107.903 195.2Z" fill="#FCC6BA"/>
<path d="M84.199 189.9C84.199 189.9 76.599 173.6 76.9991 173.3C76.9991 173.3 74.899 171.3 61.299 169.4L60.3991 172.8L52.099 171C52.099 171 40.499 173 34.299 179C34.299 179 33.499 192.6 34.999 199.3L35.799 203C36.799 207.9 46.999 222.3 46.999 222.3L42.3991 237.5C42.3991 237.5 71.6991 242.7 86.4991 236.2L79.599 217.2L84.199 189.9Z" fill="white"/>
<path d="M47.1008 222.4C47.1008 222.4 36.5008 247.4 36.4008 260.2C36.3008 273 34.3008 310.9 34.3008 310.9C34.3008 310.9 65.5008 321.3 92.4008 307.5C92.4008 307.5 98.1008 246.5 78.8008 216.6L47.1008 222.4Z" fill="white"/>
<path d="M68.1023 170.8C67.2023 174.4 65.8023 176 65.8023 176L62.4023 173.4L64.7023 179.5C64.7023 179.5 72.2023 199 73.4023 204.4C74.6023 209.9 90.4023 277.9 74.9023 313.5" stroke="#223242" stroke-width="0.75" stroke-miterlimit="10" stroke-linecap="round" stroke-linejoin="round"/>
<path d="M50.6 167.8L61 173.7L54.6 179L47 173.6C47.1 173.6 46.9 170.1 50.6 167.8Z" fill="white"/>
<path d="M68 170.5C68 170.5 64.9 167.4 61.1 167.2L60.5 172.8" fill="white"/>
<path d="M47.1016 173.6L54.6016 179.1L59.6016 174.1L67.4016 187.1" stroke="#223242" stroke-width="0.75" stroke-miterlimit="10" stroke-linecap="round" stroke-linejoin="round"/>
<path d="M52.2998 386.5L39.1998 387.7C37.9998 387.8 36.9998 386.9 36.8998 385.8L36.4998 381.7C36.3998 380.5 37.2998 379.5 38.3998 379.4L51.4998 378.2C52.6998 378.1 53.6998 379 53.7998 380.1L54.1998 384.2C54.3998 385.4 53.4998 386.4 52.2998 386.5Z" fill="#223242"/>
<path d="M77.3016 384.4H64.2016C63.0016 384.4 62.1016 383.4 62.1016 382.3V378.2C62.1016 377 63.1016 376.1 64.2016 376.1H77.3016C78.5016 376.1 79.4016 377.1 79.4016 378.2V382.3C79.4016 383.4 78.5016 384.4 77.3016 384.4Z" fill="#223242"/>
<path d="M148.603 142.3L146.003 140.2L121.703 169.6L125.603 172.7L148.603 142.3Z" fill="#BBC5D4"/>
<path d="M129.5 170.1L123.3 165.2C122.4 164.5 121.1 164.6 120.4 165.5L118.5 167.9L127.9 175.3L129.8 172.9C130.6 172.1 130.4 170.8 129.5 170.1Z" fill="#BBC5D4"/>
<path d="M128.2 174.8L125.5 172.7L121.6 169.6L119.5 167.9C118.7 167.3 117.6 167.4 117 168.2L47.6001 255.7C45.7001 258.1 45.6001 261.2 46.9001 263.7C47.4001 264.5 48.0001 265.3 48.8001 265.9C49.4001 266.4 50.0001 266.7 50.7001 267C53.6001 268.1 57.0001 267.3 59.1001 264.7L128.5 177.2C129.1 176.5 129 175.4 128.2 174.8Z" fill="#BBC5D4"/>
<path d="M122.902 171.5L48.9023 265.9" stroke="#223242" stroke-width="0.75" stroke-miterlimit="10" stroke-linecap="round" stroke-linejoin="round"/>
<path d="M56.5018 266.8L46.3018 258.7L45.8018 259.3C44.5018 260.9 44.8018 263.2 46.4018 264.4L50.9018 267.9C52.5018 269.2 54.8018 268.9 56.0018 267.3L56.5018 266.8Z" fill="#BBC5D4"/>
<path d="M182.053 137.567C192.176 124.8 191.751 107.608 181.105 99.1668C170.459 90.7257 153.623 94.2323 143.5 106.999C133.378 119.766 133.802 136.958 144.448 145.399C155.095 153.84 171.931 150.334 182.053 137.567Z" fill="#909AB5"/>
<g opacity="0.5">
<path d="M178.702 135C170.302 145.6 156.402 148.5 147.502 141.5C138.702 134.5 138.302 120.3 146.702 109.7C155.102 99.0998 169.002 96.1998 177.902 103.2C186.802 110.2 187.102 124.4 178.702 135Z" fill="white"/>
</g>
<g opacity="0.5">
<path d="M178.7 135C187.1 124.4 186.7 110.2 177.9 103.2C169.1 96.1998 155.1 99.0998 146.7 109.7C146.1 110.5 145.5 111.2 145 112C149.9 110.6 154.6 110.5 158.3 112.9C167.6 119 163.9 136.6 165.8 144.1C170.7 142.5 175.2 139.4 178.7 135Z" fill="white"/>
</g>
<path d="M40.6016 230C40.8016 230 38.2016 227.1 35.8016 224.3C37.1016 217.9 45.9016 179.9 34.4016 179C34.4016 179 24.3016 190.4 23.1016 219.4C23.1016 219.6 23.1016 227.4 23.1016 227.4C23.3016 230.1 39.6016 247 48.8016 252.4C50.6016 250.7 52.3016 248.9 54.0016 247.1L40.6016 230Z" fill="white"/>
<path d="M54.1016 247.1L40.6016 230C40.8016 230 38.2016 227.1 35.8016 224.3C36.0016 223.2 36.5016 221.2 37.0016 218.6C30.3016 214 26.6016 213.4 23.5016 213.6C23.3016 215.5 23.2016 217.4 23.1016 219.4C23.1016 219.6 23.1016 227.4 23.1016 227.4C23.3016 230.1 39.6016 247 48.8016 252.4C50.7016 250.7 52.4016 248.9 54.1016 247.1Z" fill="#FCC6BA"/>
<path d="M52.2 245.6C52.2 245.6 57.5 240.4 58.4 237.4C59.3 234.4 61.4 238 60.2 240.8C59 243.6 58 245.7 58 245.7L63.2 246.9C63.2 246.9 66.3 253.5 55.6 256.1L47.5 252.5C47.6 252.6 48.7 247.1 52.2 245.6Z" fill="#B50717"/>
<path d="M62.1984 246.8C62.1984 246.8 69.2984 247.5 69.9984 247.5C73.4984 247.6 73.8984 249.6 72.1984 249.5C69.4984 249.4 60.8984 249.7 60.8984 249.7L62.1984 246.8Z" fill="#B50717"/>
<path d="M61.7016 252.5C61.7016 252.5 74.9016 254.1 74.8016 253.3C74.7016 252.5 72.4016 251 70.2016 250.8C66.9016 250.5 60.1016 249.3 60.1016 249.3L61.7016 252.5Z" fill="#B50717"/>
<path d="M58.8031 255.1C58.8031 255.1 70.9031 257.4 70.8031 256.6C70.8031 255.8 68.8031 254.2 66.9031 253.9C63.8031 253.4 57.7031 251.9 57.7031 251.9L58.8031 255.1Z" fill="#B50717"/>
<path d="M54.2031 255.3C54.2031 255.3 63.6031 260.7 63.8031 260.1C64.0031 259.4 62.9031 257.5 61.3031 256.7C58.9031 255.4 54.2031 252.4 54.2031 252.4V255.3Z" fill="#B50717"/>
<path d="M49.6007 253.5C49.6007 253.5 44.8007 251.8 42.9007 250.8C40.8007 249.7 46.8007 241.1 50.0007 240C53.2007 238.9 51.0007 242.3 54.9007 243.6L49.6007 253.5Z" fill="#B50717"/>
<path d="M59.1 243.4C59.1 243.4 57.7 246.7 62.6 247L55.5 247.2L59.1 243.4Z" fill="#B50717"/>
<path d="M39 209.4L42.4 196.9" stroke="#223242" stroke-width="0.75" stroke-miterlimit="10" stroke-linecap="round" stroke-linejoin="round"/>
<path d="M117.105 191C117.105 191 116.005 192.2 112.505 192.5C109.105 192.8 105.505 193.9 106.105 195.1C106.705 196.3 112.605 195.9 112.605 195.9C112.605 195.9 119.005 194.4 117.105 191Z" fill="#B50717"/>
<path d="M114.803 194.7C114.803 194.7 113.703 195.9 110.203 196.2C106.803 196.5 105.303 197.7 105.903 198.9C106.503 200.1 110.403 199.6 110.403 199.6C110.403 199.6 116.703 198 114.803 194.7Z" fill="#B50717"/>
<path d="M112.201 198.2C112.201 198.2 111.401 199.1 109.001 199.2C106.601 199.4 105.501 200.3 105.901 201.1C106.301 202 109.101 201.6 109.101 201.6C109.101 201.6 113.501 200.6 112.201 198.2Z" fill="#B50717"/>
<path d="M118.502 189.8C118.502 189.8 117.002 190.5 113.702 189.5C110.402 188.5 108.502 189.2 108.702 190.5C108.802 191.8 112.602 192.8 112.602 192.8C112.602 192.8 119.102 193.6 118.502 189.8Z" fill="#B50717"/>
<path d="M79.8023 211.6C79.8023 211.6 84.1023 207.2 84.1023 202.4C84.1023 198 79.4023 192.8 79.4023 192.8L78.9023 185.3" fill="white"/>
<path d="M79.8023 211.6C79.8023 211.6 84.1023 207.2 84.1023 202.4C84.1023 198 79.4023 192.8 79.4023 192.8L78.9023 185.3" stroke="#223242" stroke-width="0.75" stroke-miterlimit="10" stroke-linecap="round" stroke-linejoin="round"/>
<path d="M50.8008 211.6C50.8008 211.6 58.4008 216.6 68.0008 213.6L50.8008 211.6Z" fill="white"/>
<path d="M50.8008 211.6C50.8008 211.6 58.4008 216.6 68.0008 213.6" stroke="#223242" stroke-width="0.75" stroke-miterlimit="10" stroke-linecap="round" stroke-linejoin="round"/>
<path d="M59.3278 195.678L50.1289 198.052L50.9786 201.344L60.1774 198.97L59.3278 195.678Z" fill="#B50717"/>
<path d="M47.8008 394.7C47.8008 394.7 50.8008 393 53.9008 394.7" stroke="white" stroke-width="0.75" stroke-miterlimit="10" stroke-linecap="round"/>
<path d="M49.4023 396.4C49.4023 396.4 52.4023 394.7 55.5023 396.4" stroke="white" stroke-width="0.75" stroke-miterlimit="10" stroke-linecap="round"/>
<path d="M79.2031 392C79.2031 392 81.0031 391 83.2031 391.3" stroke="white" stroke-width="0.75" stroke-miterlimit="10" stroke-linecap="round"/>
<path d="M75.9023 390.9C75.9023 390.9 77.7023 389.9 79.9023 390.2" stroke="white" stroke-width="0.75" stroke-miterlimit="10" stroke-linecap="round"/>
<path opacity="0.52" d="M348.999 410.3C375.951 410.3 397.799 408.867 397.799 407.1C397.799 405.333 375.951 403.9 348.999 403.9C322.048 403.9 300.199 405.333 300.199 407.1C300.199 408.867 322.048 410.3 348.999 410.3Z" fill="#BBC5D4"/>
<path d="M388.299 407.1H309.799C306.999 407.1 304.699 404.8 304.699 402V290.8C304.699 288 306.999 285.7 309.799 285.7H388.299C391.099 285.7 393.399 288 393.399 290.8V402C393.399 404.8 391.099 407.1 388.299 407.1Z" fill="#B50717"/>
<path d="M384.297 285.6H313.797V397.9H384.297V285.6Z" fill="white"/>
<path d="M364.699 280H360.399C359.599 280 358.899 279.4 358.799 278.7C358.099 273.9 353.999 270.2 348.999 270.2C343.999 270.2 339.899 273.9 339.199 278.7C339.099 279.5 338.399 280 337.599 280H333.299C332.399 280 331.699 280.7 331.699 281.6V290.7C331.699 291.6 332.399 292.3 333.299 292.3H364.699C365.599 292.3 366.299 291.6 366.299 290.7V281.6C366.299 280.7 365.599 280 364.699 280ZM348.999 284.1C346.699 284.1 344.899 282.3 344.899 280C344.899 277.7 346.699 275.9 348.999 275.9C351.299 275.9 353.099 277.7 353.099 280C353.099 282.3 351.299 284.1 348.999 284.1Z" fill="#909AB5"/>
<path d="M372.002 305.6C371.402 304.4 370.202 303.9 369.102 303.6C368.102 303.4 367.102 303.6 366.202 304.2C365.602 304.6 364.902 304.8 364.302 304.8C364.202 304.8 364.002 304.8 364.002 304.8C363.302 304.8 362.702 304.6 362.102 304.2C361.202 303.6 360.202 303.3 359.202 303.6C358.102 303.9 357.002 304.4 356.302 305.6C355.202 307.7 355.402 310.8 356.502 312.9C356.702 313.3 356.802 313.9 356.702 314.4C356.702 315.2 356.602 315.9 356.702 316.6C356.702 317.5 356.802 318.5 356.902 319.4C357.202 321 357.602 322.5 358.602 323.6C358.802 323.9 359.102 324.1 359.402 324.3C360.202 324.9 361.102 324.3 361.402 323.3C361.602 322.7 361.702 322 361.702 321.3C361.802 319.8 362.202 318.4 363.602 318.2C363.702 318.2 363.802 318.2 363.802 318.2C363.902 318.2 363.902 318.2 364.002 318.2C364.102 318.2 364.102 318.2 364.202 318.2C364.302 318.2 364.402 318.2 364.402 318.2C365.802 318.4 366.202 319.8 366.302 321.3C366.302 322 366.402 322.7 366.602 323.3C367.002 324.3 367.802 324.8 368.602 324.3C368.902 324.1 369.102 323.9 369.402 323.6C370.402 322.5 370.902 320.9 371.102 319.4C371.202 318.5 371.302 317.6 371.302 316.6C371.302 315.8 371.302 315.1 371.302 314.4C371.302 313.9 371.302 313.3 371.502 312.9C372.902 310.8 373.102 307.7 372.002 305.6Z" fill="#B50717"/>
<path d="M359.705 321.4C359.405 320.8 359.205 320 359.005 319C358.905 318.3 358.805 317.4 358.805 316.5C358.805 315.8 358.805 315.2 358.805 314.4C358.805 313.8 358.805 312.8 358.305 311.9C357.405 310.3 357.305 307.8 358.105 306.4C358.305 306 358.605 305.7 359.605 305.4C359.705 305.4 359.805 305.4 359.805 305.4C360.105 305.4 360.405 305.6 360.605 305.7C361.505 306.4 362.605 306.7 363.805 306.7H364.205C365.405 306.7 366.505 306.3 367.405 305.7C367.605 305.6 367.905 305.4 368.205 305.4C368.305 305.4 368.405 305.4 368.405 305.4C369.405 305.7 369.805 306 369.905 306.4C370.705 307.8 370.605 310.3 369.705 311.9C369.205 312.8 369.205 313.8 369.205 314.4C369.205 315.1 369.205 315.8 369.205 316.5C369.205 317.5 369.105 318.3 369.005 319C368.805 320 368.605 320.8 368.305 321.4C368.305 321.3 368.305 321.1 368.305 321.1C368.005 317.4 366.205 316.4 364.605 316.2C364.405 316.2 364.305 316.2 364.105 316.2C364.005 316.2 364.005 316.2 363.905 316.2C363.805 316.2 363.705 316.2 363.705 316.2C363.505 316.2 363.305 316.2 363.205 316.2C361.705 316.4 359.805 317.4 359.505 321.1C359.705 321.1 359.705 321.4 359.705 321.4Z" fill="white"/>
<path d="M362.203 311.2L364.003 313.1L366.303 310.1" stroke="#B50717" stroke-miterlimit="10" stroke-linecap="round" stroke-linejoin="round"/>
<path d="M347.298 332H324.898C324.298 332 323.898 331.5 323.898 331C323.898 330.4 324.398 330 324.898 330H347.298C347.898 330 348.298 330.5 348.298 331C348.298 331.6 347.798 332 347.298 332Z" fill="#B50717"/>
<path d="M373.197 338.6H324.797C324.197 338.6 323.797 338.1 323.797 337.6C323.797 337 324.297 336.6 324.797 336.6H373.197C373.797 336.6 374.197 337.1 374.197 337.6C374.297 338.1 373.797 338.6 373.197 338.6Z" fill="#B50717"/>
<path d="M373.197 345.6H324.797C324.197 345.6 323.797 345.1 323.797 344.6C323.797 344 324.297 343.6 324.797 343.6H373.197C373.797 343.6 374.197 344.1 374.197 344.6C374.297 345.1 373.797 345.6 373.197 345.6Z" fill="#B50717"/>
<path d="M373.197 352.5H324.797C324.197 352.5 323.797 352 323.797 351.5C323.797 350.9 324.297 350.5 324.797 350.5H373.197C373.797 350.5 374.197 351 374.197 351.5C374.297 352.1 373.797 352.5 373.197 352.5Z" fill="#B50717"/>
<path d="M373.197 359.5H324.797C324.197 359.5 323.797 359 323.797 358.5C323.797 357.9 324.297 357.5 324.797 357.5H373.197C373.797 357.5 374.197 358 374.197 358.5C374.297 359 373.797 359.5 373.197 359.5Z" fill="#B50717"/>
<path d="M373.197 366.4H324.797C324.197 366.4 323.797 365.9 323.797 365.4C323.797 364.8 324.297 364.4 324.797 364.4H373.197C373.797 364.4 374.197 364.9 374.197 365.4C374.297 366 373.797 366.4 373.197 366.4Z" fill="#B50717"/>
<path d="M373.197 374.2H324.797C324.197 374.2 323.797 373.7 323.797 373.2C323.797 372.6 324.297 372.2 324.797 372.2H373.197C373.797 372.2 374.197 372.7 374.197 373.2C374.297 373.7 373.797 374.2 373.197 374.2Z" fill="#B50717"/>
<path d="M373.197 381.1H324.797C324.197 381.1 323.797 380.6 323.797 380.1C323.797 379.5 324.297 379.1 324.797 379.1H373.197C373.797 379.1 374.197 379.6 374.197 380.1C374.297 380.7 373.797 381.1 373.197 381.1Z" fill="#B50717"/>
<path d="M384.297 397.9H313.797V400.5L348.997 399.2L384.297 400.5V397.9Z" fill="#223242"/>
<path d="M233.399 49.2998L235.999 56.7998C235.999 56.8998 236.099 56.9998 236.199 57.0998L243.999 59.5998C244.399 59.6998 244.399 60.3998 243.999 60.4998L236.199 62.9998C236.099 63.0998 235.999 63.1998 235.999 63.2998L233.499 70.7998C233.299 71.2998 232.699 71.2998 232.599 70.7998L229.999 63.2998C229.999 63.1998 229.899 63.0998 229.799 62.9998L222.199 60.4998C221.699 60.2998 221.699 59.5998 222.199 59.4998C224.799 58.6998 229.699 57.0998 229.699 57.0998C229.799 56.9998 229.899 56.8998 229.899 56.7998L232.399 49.2998C232.599 48.7998 233.199 48.7998 233.399 49.2998Z" fill="white"/>
<path d="M251.497 35.3999L252.897 39.4999C252.897 39.5999 252.997 39.5999 252.997 39.6999L257.197 41.0999C257.397 41.1999 257.397 41.4999 257.197 41.5999L252.997 42.9999C252.897 42.9999 252.897 43.0999 252.897 43.1999L251.497 47.2999C251.397 47.4999 251.097 47.4999 250.997 47.2999L249.597 43.1999C249.597 43.0999 249.497 43.0999 249.497 42.9999L245.397 41.6999C245.097 41.5999 245.097 41.1999 245.397 41.0999C246.797 40.5999 249.497 39.7999 249.497 39.7999C249.597 39.7999 249.597 39.6999 249.597 39.5999L250.997 35.4999C251.097 35.0999 251.397 35.0999 251.497 35.3999Z" fill="white"/>
<path d="M379.098 110.4L380.498 114.5C380.498 114.6 380.598 114.6 380.598 114.7L384.798 116.1C384.998 116.2 384.998 116.5 384.798 116.6L380.598 118C380.498 118 380.498 118.1 380.498 118.2L379.098 122.3C378.998 122.5 378.698 122.5 378.598 122.3L377.198 118.2C377.198 118.1 377.098 118.1 377.098 118L372.998 116.7C372.698 116.6 372.698 116.2 372.998 116.1C374.398 115.6 377.098 114.8 377.098 114.8C377.198 114.8 377.198 114.7 377.198 114.6L378.598 110.5C378.698 110.2 378.998 110.2 379.098 110.4Z" fill="white"/>
</g>
<defs>
<clipPath id="clip0_12_22934">
<rect width="459" height="410.3" fill="white"/>
</clipPath>
</defs>
</svg>
