<svg width="20" height="20" viewBox="0 0 20 20" fill="none" xmlns="http://www.w3.org/2000/svg">
<path fill-rule="evenodd" clip-rule="evenodd" d="M7.26286 5.37045C7.08041 4.93352 6.94207 4.9169 6.66568 4.90573C6.57158 4.90029 6.46676 4.89485 6.35047 4.89485C5.99086 4.89485 5.61494 4.99997 5.38809 5.23226C5.1117 5.51438 4.42586 6.17258 4.42586 7.5222C4.42586 8.87198 5.41014 10.1773 5.5429 10.3601C5.68124 10.5424 7.46192 13.3525 10.2269 14.4978C12.3891 15.3938 13.0307 15.3108 13.5227 15.2058C14.2416 15.051 15.143 14.5197 15.3699 13.8782C15.5966 13.2365 15.5966 12.6889 15.5301 12.5727C15.4638 12.4566 15.2812 12.3904 15.0048 12.2519C14.7284 12.1136 13.3845 11.4498 13.1302 11.3613C12.8813 11.2673 12.6436 11.3006 12.4557 11.5661C12.1902 11.9367 11.9304 12.3129 11.7201 12.5396C11.5543 12.7166 11.2832 12.7388 11.0565 12.6447C10.7523 12.5177 9.9008 12.2187 8.85007 11.2839C8.03706 10.5594 7.48412 9.65793 7.32387 9.38683C7.16348 9.11029 7.30726 8.94975 7.43443 8.80053C7.57277 8.62896 7.70538 8.50737 7.84358 8.34683C7.98193 8.18643 8.05926 8.10351 8.14776 7.91533C8.24185 7.73288 8.1754 7.5447 8.1091 7.40635C8.04264 7.26772 7.48971 5.91795 7.26286 5.37045ZM9.88974 0.591064C4.70266 0.591064 0.483398 4.8115 0.483398 10.0001C0.483398 12.0577 1.14704 13.9662 2.2751 15.515L1.10264 19.0109L4.71927 17.8551C6.2068 18.8396 7.98189 19.4093 9.89533 19.4093C15.0824 19.4093 19.3017 15.1886 19.3017 10.0003C19.3017 4.8118 15.0824 0.591358 9.89533 0.591358H9.88989V0.591064H9.88974Z" fill="#6A6A6A"/>
</svg>
