<svg width="18" height="15" viewBox="0 0 18 15" fill="none" xmlns="http://www.w3.org/2000/svg">
<path fill-rule="evenodd" clip-rule="evenodd" d="M9.81114 11.5531C9.1541 12.2009 8.50415 12.8373 7.8598 13.4795C7.63451 13.704 7.38108 13.828 7.05794 13.8103C6.83786 13.7984 6.71432 13.6994 6.64689 13.4871C6.15378 11.9353 5.65261 10.386 5.16173 8.83341C5.1139 8.68224 5.04187 8.6096 4.89185 8.56313C3.72914 8.20292 2.56874 7.8349 1.40984 7.46236C1.23825 7.4072 1.06451 7.33629 0.915633 7.23621C0.656518 7.06206 0.619539 6.78518 0.85616 6.5847C1.0748 6.39942 1.334 6.24431 1.59955 6.13788C3.06873 5.54921 4.54539 4.9796 6.01938 4.40321C9.56511 3.01669 13.1109 1.6303 16.6564 0.243113C17.3361 -0.0228212 17.8642 0.345993 17.8006 1.08859C17.7586 1.57811 17.6328 2.06124 17.5319 2.54451C16.7462 6.30603 15.9574 10.0669 15.1697 13.828C15.1681 13.8352 15.1677 13.8427 15.166 13.8498C14.9734 14.7103 14.3564 14.9455 13.6529 14.421C12.4316 13.5105 11.2134 12.5958 9.99372 11.6831C9.93604 11.64 9.87639 11.5995 9.81114 11.5531ZM7.11238 12.7376C7.13137 12.6493 7.14455 12.6086 7.1484 12.567C7.2259 11.7211 7.3069 10.8756 7.37552 10.0289C7.3908 9.84105 7.44611 9.70229 7.58956 9.57183C9.44035 7.88864 11.2854 6.19898 13.1319 4.511C13.6572 4.03084 14.1846 3.55307 14.7047 3.06732C14.7594 3.01633 14.7712 2.91832 14.8029 2.84214C14.7226 2.81908 14.6325 2.76064 14.5639 2.78001C14.4054 2.8248 14.2456 2.8887 14.1065 2.9773C11.3611 4.72687 8.61924 6.48208 5.87374 8.23147C5.73405 8.32047 5.69419 8.39373 5.7502 8.56423C6.18493 9.88734 6.60706 11.2147 7.03374 12.5405C7.05046 12.5925 7.07405 12.6422 7.11238 12.7376Z" fill="#6A6A6A"/>
</svg>
