<svg width="17" height="17" viewBox="0 0 17 17" fill="none" xmlns="http://www.w3.org/2000/svg">
<path fill-rule="evenodd" clip-rule="evenodd" d="M8.53457 0.759277C6.417 0.759277 6.15125 0.768536 5.31956 0.806385C4.4895 0.844396 3.92291 0.975809 3.42714 1.16863C2.91432 1.36778 2.47931 1.63418 2.04592 2.06773C1.6122 2.50112 1.3458 2.93613 1.146 3.44879C0.952699 3.94472 0.821123 4.51147 0.783761 5.34121C0.746563 6.1729 0.736816 6.43882 0.736816 8.55638C0.736816 10.6739 0.746238 10.9389 0.783924 11.7706C0.822097 12.6006 0.953511 13.1672 1.14616 13.663C1.34548 14.1758 1.61188 14.6108 2.04543 15.0442C2.47866 15.4779 2.91367 15.745 3.42617 15.9441C3.92226 16.1369 4.48901 16.2684 5.31891 16.3064C6.1506 16.3442 6.41619 16.3535 8.53359 16.3535C10.6513 16.3535 10.9163 16.3442 11.7479 16.3064C12.578 16.2684 13.1453 16.1369 13.6413 15.9441C14.154 15.745 14.5884 15.4779 15.0216 15.0442C15.4553 14.6108 15.7217 14.1758 15.9215 13.6632C16.1132 13.1672 16.2448 12.6005 16.2837 11.7707C16.3211 10.939 16.3309 10.6739 16.3309 8.55638C16.3309 6.43882 16.3211 6.17306 16.2837 5.34137C16.2448 4.51131 16.1132 3.94472 15.9215 3.44895C15.7217 2.93613 15.4553 2.50112 15.0216 2.06773C14.5879 1.63401 14.1542 1.36761 13.6409 1.16863C13.1438 0.975809 12.5769 0.844396 11.7468 0.806385C10.9151 0.768536 10.6503 0.759277 8.53213 0.759277H8.53457ZM8.27465 2.16457H8.27475L8.53463 2.16465C10.6165 2.16465 10.8632 2.17212 11.6853 2.20948C12.4455 2.24425 12.8581 2.37127 13.133 2.478C13.4968 2.61932 13.7562 2.78826 14.029 3.06115C14.3019 3.33405 14.4708 3.59396 14.6125 3.95782C14.7192 4.23234 14.8464 4.64494 14.881 5.40516C14.9183 6.2271 14.9265 6.47401 14.9265 8.55486C14.9265 10.6357 14.9183 10.8826 14.881 11.7046C14.8462 12.4648 14.7192 12.8774 14.6125 13.1519C14.4711 13.5158 14.3019 13.7749 14.029 14.0476C13.7561 14.3205 13.497 14.4894 13.133 14.6308C12.8584 14.738 12.4455 14.8647 11.6853 14.8994C10.8634 14.9368 10.6165 14.9449 8.53463 14.9449C6.45264 14.9449 6.20589 14.9368 5.38395 14.8994C4.62373 14.8643 4.21113 14.7373 3.93612 14.6306C3.57226 14.4893 3.31236 14.3203 3.03946 14.0474C2.76656 13.7745 2.59762 13.5153 2.45598 13.1513C2.34925 12.8767 2.22206 12.4641 2.18746 11.7039C2.1501 10.882 2.14263 10.6351 2.14263 8.55291C2.14263 6.47076 2.1501 6.22515 2.18746 5.40321C2.22222 4.64299 2.34925 4.23039 2.45598 3.95555C2.5973 3.59168 2.76656 3.33178 3.03946 3.05888C3.31236 2.78598 3.57226 2.61704 3.93612 2.4754C4.21097 2.36819 4.62373 2.24148 5.38395 2.20656C6.10323 2.17407 6.38198 2.16432 7.83516 2.1627V2.16465C7.97089 2.16444 8.1169 2.1645 8.27446 2.16457H8.27455H8.27465ZM11.761 4.39444C11.761 3.87772 12.1801 3.45912 12.6967 3.45912V3.45879C13.2132 3.45879 13.6323 3.87789 13.6323 4.39444C13.6323 4.911 13.2132 5.3301 12.6967 5.3301C12.1801 5.3301 11.761 4.911 11.761 4.39444ZM8.53466 4.55243C6.32344 4.55251 4.53068 6.34532 4.53068 8.55656C4.53068 10.7679 6.32353 12.5599 8.53482 12.5599C10.7461 12.5599 12.5383 10.7679 12.5383 8.55656C12.5383 6.34527 10.7459 4.55243 8.53466 4.55243ZM11.1336 8.55646C11.1336 7.12098 9.96987 5.95743 8.53455 5.95743C7.09908 5.95743 5.93552 7.12098 5.93552 8.55646C5.93552 9.99178 7.09908 11.1555 8.53455 11.1555C9.96987 11.1555 11.1336 9.99178 11.1336 8.55646Z" fill="#6A6A6A"/>
</svg>
