<svg width="17" height="10" viewBox="0 0 17 10" fill="none" xmlns="http://www.w3.org/2000/svg">
<path fill-rule="evenodd" clip-rule="evenodd" d="M16.3414 0.977021C16.4589 0.616779 16.3414 0.354767 15.821 0.354767H14.0921C13.6556 0.354767 13.4542 0.584003 13.3367 0.829676C13.3367 0.829676 12.447 2.92572 11.2049 4.28485C10.802 4.67787 10.6174 4.80888 10.3992 4.80888C10.2816 4.80888 10.1306 4.67787 10.1306 4.31763V0.960634C10.1306 0.534888 9.99631 0.338379 9.62699 0.338379H6.90769C6.63911 0.338379 6.47127 0.534888 6.47127 0.731397C6.47127 1.1408 7.09233 1.23903 7.15947 2.38531V4.87438C7.15947 5.41479 7.05878 5.51302 6.84055 5.51302C6.25304 5.51302 4.82625 3.40059 3.97016 0.993409C3.80227 0.5185 3.63444 0.338379 3.19802 0.338379H1.45225C0.94868 0.338379 0.864746 0.567664 0.864746 0.813288C0.864746 1.25542 1.45225 3.48248 3.60084 6.43007C5.02768 8.44422 7.05878 9.525 8.88845 9.525C9.99631 9.525 10.1306 9.27937 10.1306 8.87002V7.34711C10.1306 6.85581 10.2313 6.77397 10.5838 6.77397C10.8356 6.77397 11.2888 6.90493 12.3127 7.87108C13.4878 9.01736 13.6892 9.54139 14.3438 9.54139H16.0728C16.5764 9.54139 16.8114 9.29576 16.6771 8.82085C16.526 8.34599 15.9553 7.65824 15.2167 6.83942C14.8139 6.38095 14.2096 5.87331 14.0249 5.62764C13.7731 5.30017 13.8403 5.16917 14.0249 4.87438C14.0082 4.87438 16.1232 1.95957 16.3414 0.977021Z" fill="#6A6A6A"/>
</svg>
