<?xml version="1.0" encoding="UTF-8"?>
<!DOCTYPE svg PUBLIC "-//W3C//DTD SVG 1.1//EN" "http://www.w3.org/Graphics/SVG/1.1/DTD/svg11.dtd">
<svg xmlns="http://www.w3.org/2000/svg" version="1.1" width="303px" height="80px" style="shape-rendering:geometricPrecision; text-rendering:geometricPrecision; image-rendering:optimizeQuality; fill-rule:evenodd; clip-rule:evenodd" xmlns:xlink="http://www.w3.org/1999/xlink">
<g><path style="opacity:0.97" fill="#8b9bb4" d="M 1.5,6.5 C 21.5,6.5 41.5,6.5 61.5,6.5C 60.3129,8.90532 58.8129,11.2387 57,13.5C 53.3892,16.5678 49.8892,19.7344 46.5,23C 37.1726,23.4998 27.8393,23.6665 18.5,23.5C 18.6665,32.8393 18.4998,42.1726 18,51.5C 13.0543,57.0678 7.88768,62.4012 2.5,67.5C 1.50036,47.1776 1.16702,26.8443 1.5,6.5 Z"/></g>
<g><path style="opacity:0.901" fill="#8b9bb4" d="M 63.5,8.5 C 65.1912,20.1689 66.1912,32.1689 66.5,44.5C 66.28,53.1822 66.1134,61.5156 66,69.5C 64.9148,70.2931 63.7481,70.9598 62.5,71.5C 44.1925,71.2575 24.5258,70.5908 3.5,69.5C 8.5,63.8333 13.8333,58.5 19.5,53.5C 28.8096,52.5017 38.1429,52.1684 47.5,52.5C 47.6713,43.1918 48.0046,33.8585 48.5,24.5C 53.498,19.176 58.498,13.8427 63.5,8.5 Z"/></g>
<g><path style="opacity:0.842" fill="#8b9bb4" d="M 160.5,8.5 C 163.568,8.54673 166.568,9.04673 169.5,10C 172.104,12.7419 171.771,15.2419 168.5,17.5C 159.887,14.274 156.054,17.274 157,26.5C 160.492,30.9986 164.659,31.6652 169.5,28.5C 174.018,32.6178 173.352,35.4512 167.5,37C 154.211,38.7108 148.044,32.8775 149,19.5C 150.789,13.5412 154.622,9.87454 160.5,8.5 Z"/></g>
<g><path style="opacity:0.901" fill="#8b9bb4" d="M 96.5,9.5 C 102.5,9.5 108.5,9.5 114.5,9.5C 114.5,18.5 114.5,27.5 114.5,36.5C 112.167,36.5 109.833,36.5 107.5,36.5C 107.5,29.8333 107.5,23.1667 107.5,16.5C 105.833,16.5 104.167,16.5 102.5,16.5C 102.59,23.2177 101.09,29.551 98,35.5C 95.6985,36.8672 93.1985,37.5339 90.5,37.5C 90.1866,34.7531 90.52,32.0865 91.5,29.5C 93.6999,27.7471 94.8666,25.4138 95,22.5C 95.2917,18.118 95.7917,13.7847 96.5,9.5 Z"/></g>
<g><path style="opacity:0.896" fill="#8b9bb4" d="M 120.5,9.5 C 122.833,9.5 125.167,9.5 127.5,9.5C 127.334,14.5111 127.501,19.5111 128,24.5C 131.378,19.5782 134.878,14.7449 138.5,10C 140.473,9.50454 142.473,9.33788 144.5,9.5C 144.5,18.5 144.5,27.5 144.5,36.5C 142.167,36.5 139.833,36.5 137.5,36.5C 137.666,31.8215 137.499,27.1548 137,22.5C 133.833,27 130.667,31.5 127.5,36C 125.19,36.4966 122.857,36.6633 120.5,36.5C 120.5,27.5 120.5,18.5 120.5,9.5 Z"/></g>
<g><path style="opacity:0.875" fill="#8b9bb4" d="M 172.5,9.5 C 180.167,9.5 187.833,9.5 195.5,9.5C 195.5,11.8333 195.5,14.1667 195.5,16.5C 192.833,16.5 190.167,16.5 187.5,16.5C 187.5,23.1667 187.5,29.8333 187.5,36.5C 185.167,36.5 182.833,36.5 180.5,36.5C 180.5,29.8333 180.5,23.1667 180.5,16.5C 177.833,16.5 175.167,16.5 172.5,16.5C 172.5,14.1667 172.5,11.8333 172.5,9.5 Z"/></g>
<g><path style="opacity:0.89" fill="#8b9bb4" d="M 198.5,9.5 C 204.167,9.5 209.833,9.5 215.5,9.5C 215.5,11.8333 215.5,14.1667 215.5,16.5C 212.167,16.5 208.833,16.5 205.5,16.5C 205.5,17.5 205.5,18.5 205.5,19.5C 208.167,19.5 210.833,19.5 213.5,19.5C 213.5,21.8333 213.5,24.1667 213.5,26.5C 210.833,26.5 208.167,26.5 205.5,26.5C 205.5,27.8333 205.5,29.1667 205.5,30.5C 208.833,30.5 212.167,30.5 215.5,30.5C 215.5,32.5 215.5,34.5 215.5,36.5C 209.833,36.5 204.167,36.5 198.5,36.5C 198.5,27.5 198.5,18.5 198.5,9.5 Z"/></g>
<g><path style="opacity:0.874" fill="#8b9bb4" d="M 223.5,9.5 C 229.833,9.5 236.167,9.5 242.5,9.5C 242.5,18.5 242.5,27.5 242.5,36.5C 240.167,36.5 237.833,36.5 235.5,36.5C 235.5,29.8333 235.5,23.1667 235.5,16.5C 233.712,16.2148 232.045,16.5481 230.5,17.5C 229.822,23.3942 228.322,29.0609 226,34.5C 223.695,36.9305 220.862,37.9305 217.5,37.5C 217.5,34.8333 217.5,32.1667 217.5,29.5C 220.346,29.1913 221.846,27.5246 222,24.5C 222.912,19.5364 223.412,14.5364 223.5,9.5 Z"/></g>
<g><path style="opacity:0.848" fill="#8b9bb4" d="M 251.5,9.5 C 257.833,9.5 264.167,9.5 270.5,9.5C 270.5,18.5 270.5,27.5 270.5,36.5C 267.833,36.5 265.167,36.5 262.5,36.5C 262.5,29.8333 262.5,23.1667 262.5,16.5C 260.856,16.2865 259.356,16.6198 258,17.5C 257.766,23.4349 256.433,29.1016 254,34.5C 251.695,36.9305 248.862,37.9305 245.5,37.5C 245.5,34.8333 245.5,32.1667 245.5,29.5C 247.124,29.6399 248.29,28.9733 249,27.5C 250.325,21.5663 251.158,15.5663 251.5,9.5 Z"/></g>
<g><path style="opacity:0.874" fill="#8b9bb4" d="M 275.5,9.5 C 277.833,9.5 280.167,9.5 282.5,9.5C 282.334,14.5111 282.501,19.5111 283,24.5C 286.5,19.6667 290,14.8333 293.5,10C 295.81,9.50335 298.143,9.33669 300.5,9.5C 300.5,18.5 300.5,27.5 300.5,36.5C 298.167,36.5 295.833,36.5 293.5,36.5C 293.666,31.4889 293.499,26.4889 293,21.5C 289.622,26.4218 286.122,31.2551 282.5,36C 280.19,36.4966 277.857,36.6633 275.5,36.5C 275.5,27.5 275.5,18.5 275.5,9.5 Z"/></g>
<g><path style="opacity:0.761" fill="#8b9bb4" d="M 92.5,42.5 C 99.1667,42.5 105.833,42.5 112.5,42.5C 112.5,51.1667 112.5,59.8333 112.5,68.5C 111.167,68.5 109.833,68.5 108.5,68.5C 108.5,61.1667 108.5,53.8333 108.5,46.5C 104.5,46.5 100.5,46.5 96.5,46.5C 96.5,53.8333 96.5,61.1667 96.5,68.5C 95.1667,68.5 93.8333,68.5 92.5,68.5C 92.5,59.8333 92.5,51.1667 92.5,42.5 Z"/></g>
<g><path style="opacity:0.823" fill="#8b9bb4" d="M 120.5,42.5 C 125.833,42.5 131.167,42.5 136.5,42.5C 136.5,51.1667 136.5,59.8333 136.5,68.5C 135.5,68.5 134.5,68.5 133.5,68.5C 133.5,61.1667 133.5,53.8333 133.5,46.5C 130.5,46.5 127.5,46.5 124.5,46.5C 124.877,53.2569 124.377,59.9236 123,66.5C 120.874,68.3766 118.374,69.3766 115.5,69.5C 115.238,68.0222 115.571,66.6888 116.5,65.5C 118.134,65.032 119.3,64.032 120,62.5C 120.5,55.8417 120.666,49.175 120.5,42.5 Z"/></g>
<g><path style="opacity:0.778" fill="#8b9bb4" d="M 142.5,42.5 C 143.833,42.5 145.167,42.5 146.5,42.5C 146.5,46.1667 146.5,49.8333 146.5,53.5C 147.5,53.5 148.5,53.5 149.5,53.5C 151.512,43.6484 157.512,40.1484 167.5,43C 175.042,46.9387 177.542,53.1053 175,61.5C 171.292,67.8505 165.792,70.3505 158.5,69C 152.836,66.508 149.17,62.3413 147.5,56.5C 146.509,60.4454 146.176,64.4454 146.5,68.5C 145.167,68.5 143.833,68.5 142.5,68.5C 142.5,59.8333 142.5,51.1667 142.5,42.5 Z M 160.5,45.5 C 169.506,46.009 173.006,50.6757 171,59.5C 165.833,67.0791 160.167,67.4124 154,60.5C 151.809,53.5631 153.976,48.5631 160.5,45.5 Z"/></g>
<g><path style="opacity:0.754" fill="#8b9bb4" d="M 186.5,42.5 C 190.182,42.3347 193.848,42.5014 197.5,43C 200.306,44.3051 201.14,46.4718 200,49.5C 191.435,43.4107 185.602,45.4107 182.5,55.5C 183.581,63.0457 187.914,66.2124 195.5,65C 196.966,64.3645 198.3,63.5312 199.5,62.5C 200.893,64.6741 200.56,66.5074 198.5,68C 184.548,71.2765 178.048,65.7765 179,51.5C 180.642,47.6997 183.142,44.6997 186.5,42.5 Z"/></g>
</svg>
