<svg width="90" height="90" viewBox="0 0 90 90" fill="none" xmlns="http://www.w3.org/2000/svg">
<rect width="90" height="90" rx="45" fill="white"/>
<g clip-path="url(#clip0_5_7818)">
<path d="M49.7478 66C48.444 66 47.3152 65.1355 47.0667 63.942L46.0378 58.1215C45.9573 57.7347 45.5092 57.425 45 57.425C44.4908 57.425 44.0428 57.7365 43.957 58.1478L42.9368 63.9158C42.683 65.1355 41.556 66 40.2522 66C38.8592 66 37.692 65.027 37.538 63.7355L37.139 60.3877C37.1127 60.1672 36.7925 58.5887 35.9718 54.8157C35.5745 52.9975 35.375 51.1355 35.375 49.2787C35.375 46.9197 37.2948 45 39.6555 45C40.4483 45 41.2253 45.2152 41.906 45.623C43.8153 46.7675 46.1847 46.7675 48.094 45.623C48.7747 45.2152 49.5535 45 50.3445 45C52.7052 45 54.625 46.9197 54.625 49.2787C54.625 51.1372 54.4255 52.9993 54.03 54.8175C53.022 59.4463 52.8768 60.2512 52.8628 60.386L52.4637 63.7373C52.3097 65.027 51.1425 66 49.7478 66ZM45 55.675C46.3422 55.675 47.5025 56.5657 47.7562 57.7925L48.7852 63.6112C48.8588 63.963 49.2753 64.25 49.7478 64.25C50.2483 64.25 50.677 63.9333 50.7242 63.5308C50.7242 63.529 50.7242 63.529 50.7242 63.529L51.1232 60.1795C51.1407 60.0377 51.1845 59.658 52.3185 54.4465C52.686 52.7508 52.8733 51.013 52.8733 49.2822C52.8733 47.8857 51.7393 46.7518 50.3428 46.7518C49.8685 46.7518 49.4012 46.8813 48.9935 47.1263C46.5277 48.6068 43.467 48.605 41.0048 47.1263C40.597 46.8795 40.1298 46.75 39.6555 46.75C38.259 46.75 37.125 47.884 37.125 49.2787C37.125 51.0095 37.3122 52.7473 37.6797 54.443C38.4305 57.8923 38.833 59.8225 38.875 60.1778L39.274 63.5273C39.323 63.9333 39.7517 64.25 40.2522 64.25C40.7247 64.25 41.1413 63.963 41.22 63.5832L42.2403 57.817C42.4975 56.564 43.6578 55.675 45 55.675Z" fill="#B50717"/>
<path d="M31.8752 55.5001C31.6162 55.5001 31.3624 55.3863 31.1909 55.1711L24.1909 46.4211C23.9914 46.1708 23.9442 45.8331 24.0667 45.5373L32.8167 24.5373C33.0039 24.0893 33.5149 23.8881 33.9612 24.0648C34.4074 24.2503 34.6174 24.7631 34.4319 25.2093L25.8832 45.7333L28.8704 49.4678L27.5632 46.2006C27.4704 45.9678 27.4809 45.7088 27.5929 45.4848L38.0929 24.4848C38.3082 24.0526 38.8367 23.8758 39.2672 24.0928C39.6994 24.3098 39.8744 24.8348 39.6592 25.2671L29.3342 45.9136L32.6889 54.2996C32.8499 54.7003 32.6907 55.1623 32.3179 55.3793C32.1779 55.4616 32.0257 55.5001 31.8752 55.5001Z" fill="#B50717"/>
<path d="M58.1251 55.5C57.9746 55.5 57.8241 55.4615 57.6858 55.381C57.3113 55.164 57.1538 54.702 57.3148 54.3013L60.6696 45.9153L50.3428 25.267C50.1258 24.8347 50.3026 24.3097 50.7348 24.0927C51.1671 23.8757 51.6921 24.0542 51.9091 24.4847L62.4091 45.4848C62.5211 45.7088 62.5316 45.9678 62.4388 46.2005L61.1316 49.4678L64.1188 45.7332L55.5683 25.211C55.3828 24.7647 55.5928 24.252 56.0391 24.0665C56.4853 23.8862 56.9981 24.091 57.1836 24.539L65.9336 45.539C66.0561 45.8347 66.0088 46.1725 65.8093 46.4228L58.8093 55.1728C58.6361 55.3863 58.3823 55.5 58.1251 55.5Z" fill="#B50717"/>
</g>
<defs>
<clipPath id="clip0_5_7818">
<rect width="42" height="42" fill="white" transform="translate(24 24)"/>
</clipPath>
</defs>
</svg>
