<svg width="90" height="90" viewBox="0 0 90 90" fill="none" xmlns="http://www.w3.org/2000/svg">
<rect width="90" height="90" rx="45" fill="white"/>
<g clip-path="url(#clip0_5_7806)">
<path d="M45 63.375C34.8675 63.375 26.625 55.1325 26.625 45C26.625 34.8675 34.8675 26.625 45 26.625C55.1325 26.625 63.375 34.8675 63.375 45C63.375 55.1325 55.1325 63.375 45 63.375ZM45 28.375C35.8335 28.375 28.375 35.8335 28.375 45C28.375 54.1665 35.8335 61.625 45 61.625C54.1665 61.625 61.625 54.1665 61.625 45C61.625 35.8335 54.1665 28.375 45 28.375Z" fill="#B50717"/>
<path d="M45 31C44.517 31 44.125 30.608 44.125 30.125V24.875C44.125 24.392 44.517 24 45 24C45.483 24 45.875 24.392 45.875 24.875V30.125C45.875 30.608 45.483 31 45 31Z" fill="#B50717"/>
<path d="M45 66C44.517 66 44.125 65.608 44.125 65.125V59.875C44.125 59.392 44.517 59 45 59C45.483 59 45.875 59.392 45.875 59.875V65.125C45.875 65.608 45.483 66 45 66Z" fill="#B50717"/>
<path d="M65.125 45.875H59.875C59.392 45.875 59 45.483 59 45C59 44.517 59.392 44.125 59.875 44.125H65.125C65.608 44.125 66 44.517 66 45C66 45.483 65.608 45.875 65.125 45.875Z" fill="#B50717"/>
<path d="M30.125 45.875H24.875C24.392 45.875 24 45.483 24 45C24 44.517 24.392 44.125 24.875 44.125H30.125C30.608 44.125 31 44.517 31 45C31 45.483 30.608 45.875 30.125 45.875Z" fill="#B50717"/>
<path d="M49.7478 55.5C48.4423 55.5 47.3152 54.6337 47.0667 53.4402L46.0378 47.6197C45.9573 47.2347 45.5093 46.925 45 46.925C44.4907 46.925 44.0428 47.2348 43.957 47.646L42.9368 53.414C42.683 54.6338 41.556 55.5 40.2522 55.5C38.8575 55.5 37.692 54.527 37.538 53.2355L37.139 49.886C37.1127 49.6672 36.7925 48.0888 35.9718 44.3158C35.5745 42.4975 35.375 40.6355 35.375 38.7805C35.375 36.4198 37.2948 34.5 39.6555 34.5C40.4483 34.5 41.2253 34.7152 41.906 35.123C43.8153 36.2675 46.1847 36.2675 48.094 35.123C48.7747 34.7152 49.5535 34.5 50.3445 34.5C52.7052 34.5 54.625 36.4198 54.625 38.7805C54.625 40.6373 54.4255 42.4992 54.03 44.3175C52.994 49.0757 52.8733 49.7827 52.8628 49.886L52.4637 53.2373C52.3097 54.527 51.1425 55.5 49.7478 55.5ZM45 45.175C46.3423 45.175 47.5007 46.064 47.7562 47.2908L48.7853 53.1095C48.8588 53.463 49.2753 53.75 49.7478 53.75C50.2483 53.75 50.677 53.4332 50.7242 53.029L51.1232 49.6795C51.139 49.55 51.1862 49.1562 52.3185 43.9465C52.686 42.2507 52.8733 40.513 52.8733 38.7822C52.875 37.3857 51.741 36.25 50.3445 36.25C49.8702 36.25 49.403 36.3795 48.9952 36.6245C46.5312 38.1033 43.4705 38.1033 41.0065 36.6245C40.597 36.3795 40.1298 36.25 39.6555 36.25C38.259 36.25 37.125 37.384 37.125 38.7805C37.125 40.5113 37.3122 42.249 37.6797 43.9448C38.4305 47.3923 38.8312 49.3208 38.875 49.6778L39.274 53.029C39.323 53.4332 39.7517 53.75 40.2522 53.75C40.7247 53.75 41.1413 53.463 41.22 53.0832L42.2403 47.317C42.4993 46.064 43.6577 45.175 45 45.175Z" fill="#B50717"/>
</g>
<defs>
<clipPath id="clip0_5_7806">
<rect width="42" height="42" fill="white" transform="translate(24 24)"/>
</clipPath>
</defs>
</svg>
