<svg width="90" height="90" viewBox="0 0 90 90" fill="none" xmlns="http://www.w3.org/2000/svg">
<rect width="90" height="90" rx="45" fill="white"/>
<g clip-path="url(#clip0_5_7842)">
<path d="M51.174 60.75C49.5885 60.75 48.2288 59.56 47.94 57.9202L46.6048 48.9463C46.4595 48.1168 45.784 47.499 45 47.499C44.216 47.499 43.5423 48.1168 43.3935 48.9673L42.0653 57.8993C41.7713 59.56 40.4115 60.75 38.826 60.75C37.139 60.75 35.732 59.42 35.557 57.656L35.039 52.4795C35.018 52.2642 34.8255 50.9885 33.513 43.8135C33.0055 41.0502 32.75 38.2153 32.75 35.3872C32.75 32.0027 35.1283 29.25 38.0508 29.25C39.0588 29.25 40.044 29.5738 40.8997 30.1827C43.4285 31.9852 46.5715 31.9852 49.0985 30.1827C49.956 29.5738 50.9412 29.25 51.9493 29.25C54.8718 29.25 57.25 32.0027 57.25 35.3872C57.25 38.2118 56.9945 41.0485 56.487 43.8153C55.1745 50.9902 54.982 52.2642 54.961 52.4795L54.443 57.656C54.2663 59.42 52.861 60.75 51.174 60.75ZM45 45.7472C46.6363 45.7472 48.0363 46.974 48.332 48.6645L49.6673 57.6385C49.8038 58.4172 50.439 59 51.174 59C51.958 59 52.616 58.3472 52.7017 57.481L53.2198 52.3045C53.2723 51.783 53.792 48.822 54.7668 43.5002C55.2533 40.8367 55.5 38.1085 55.5 35.389C55.5 32.9687 53.9075 31 51.9493 31C51.3088 31 50.6735 31.21 50.1153 31.609C46.96 33.8577 43.0417 33.8595 39.8847 31.609C39.3265 31.21 38.693 31 38.0508 31C36.0925 31 34.5 32.9688 34.5 35.3872C34.5 38.1102 34.7468 40.8385 35.2333 43.4985C36.2063 48.8202 36.7278 51.783 36.7803 52.3045L37.2983 57.4827C37.384 58.3472 38.042 59 38.826 59C39.5593 59 40.1963 58.4172 40.3363 57.6175L41.6645 48.6873C41.9638 46.974 43.3638 45.7472 45 45.7472Z" fill="#B50717"/>
<path d="M28.1142 57.2447C26.2225 57.2447 24.9677 56.7722 24.364 55.8325C24.1015 55.423 23.8425 54.7177 24.1137 53.6992C25.0482 50.187 32.0762 44.4942 41.6015 39.5347C51.8372 34.206 63.375 30.6517 65.6342 34.1675C66.7 35.8142 65.51 38.2345 62.094 41.3582C61.737 41.682 61.184 41.6592 60.8567 41.3022C60.5312 40.9452 60.5557 40.3922 60.9127 40.065C64.1152 37.139 64.4635 35.5762 64.1642 35.1142C63.088 33.4342 54.2925 34.8972 42.4117 41.0835C32.4052 46.2932 26.4832 51.5992 25.806 54.1472C25.7202 54.4692 25.7307 54.7177 25.8392 54.8857C26.1612 55.3915 27.6715 55.7782 30.8477 55.2147C31.3307 55.1342 31.7787 55.4475 31.8627 55.9235C31.9467 56.3995 31.63 56.8545 31.154 56.9385C30.0042 57.1415 28.991 57.2447 28.1142 57.2447Z" fill="#B50717"/>
<path d="M61.8859 57.2448C61.0092 57.2448 59.9959 57.1433 58.8479 56.9403C58.3719 56.8563 58.0552 56.4013 58.1392 55.9253C58.2232 55.451 58.6694 55.1308 59.1542 55.2165C62.3339 55.78 63.8389 55.3915 64.1609 54.8875C64.2694 54.7195 64.2799 54.471 64.1942 54.149C63.5169 51.601 57.5949 46.295 47.5884 41.0853C35.7059 34.899 26.9157 33.4413 25.8394 35.1125C25.5297 35.5938 25.9059 37.2073 29.2729 40.219C29.6334 40.541 29.6649 41.094 29.3429 41.4545C29.0209 41.8168 28.4679 41.8448 28.1074 41.5245C24.5374 38.3308 23.2792 35.8563 24.3659 34.1675C26.6217 30.65 38.1612 34.2043 48.3952 39.5348C57.9204 44.4943 64.9484 50.187 65.8829 53.6993C66.1542 54.7178 65.8969 55.4213 65.6327 55.8325C65.0324 56.7723 63.7759 57.2448 61.8859 57.2448Z" fill="#B50717"/>
</g>
<defs>
<clipPath id="clip0_5_7842">
<rect width="42" height="42" fill="white" transform="translate(24 24)"/>
</clipPath>
</defs>
</svg>
