<svg width="90" height="90" viewBox="0 0 90 90" fill="none" xmlns="http://www.w3.org/2000/svg">
<rect width="90" height="90" rx="45" fill="white"/>
<g clip-path="url(#clip0_5_7830)">
<path d="M61.1245 66C59.8208 66 58.692 65.1355 58.4435 63.942L57.4145 58.1215C57.3322 57.7347 56.8842 57.425 56.375 57.425C55.8658 57.425 55.4177 57.7365 55.3302 58.1495L54.3117 63.9158C54.058 65.1355 52.9293 66 51.6255 66C50.2308 66 49.0635 65.027 48.9112 63.7355L48.5122 60.386C48.479 60.1112 48.087 58.237 47.345 54.8157C46.9495 52.9992 46.75 51.1372 46.75 49.2787C46.75 46.9197 48.6697 45 51.0287 45C51.8215 45 52.6003 45.2152 53.281 45.623C55.1885 46.7675 57.558 46.7675 59.469 45.623C60.148 45.2152 60.9285 45 61.7213 45C64.0802 45 66 46.9197 66 49.2787C66 51.139 65.8005 53.001 65.4033 54.8175C64.369 59.5688 64.25 60.2793 64.236 60.386L63.837 63.7355C63.6865 65.027 62.5193 66 61.1245 66ZM56.375 55.675C57.7155 55.675 58.8758 56.5658 59.1313 57.7908L60.1602 63.6112C60.2355 63.963 60.652 64.25 61.1245 64.25C61.6233 64.25 62.052 63.9333 62.1028 63.5308L62.5 60.1812C62.5157 60.05 62.5613 59.6493 63.6953 54.4465C64.0645 52.7525 64.25 51.0148 64.25 49.2805C64.25 47.884 63.116 46.75 61.7213 46.75C61.2453 46.75 60.778 46.8795 60.372 47.1245C57.908 48.6015 54.8438 48.6015 52.3832 47.1245C51.9755 46.8795 51.5082 46.75 51.0322 46.75C49.634 46.75 48.5 47.884 48.5 49.2787C48.5 51.0112 48.6855 52.749 49.0548 54.443C49.851 58.118 50.2097 59.8312 50.25 60.1795L50.649 63.529C50.698 63.9332 51.1268 64.25 51.6255 64.25C52.098 64.25 52.5145 63.963 52.595 63.5832L53.6135 57.817C53.8743 56.564 55.0345 55.675 56.375 55.675Z" fill="#B50717"/>
<path d="M38 39.75C33.6583 39.75 30.125 36.2168 30.125 31.875C30.125 27.5333 33.6583 24 38 24C42.3418 24 45.875 27.5333 45.875 31.875C45.875 36.2168 42.3418 39.75 38 39.75ZM38 25.75C34.6225 25.75 31.875 28.4975 31.875 31.875C31.875 35.2525 34.6225 38 38 38C41.3775 38 44.125 35.2525 44.125 31.875C44.125 28.4975 41.3775 25.75 38 25.75Z" fill="#B50717"/>
<path d="M42.375 57.25H24.875C24.392 57.25 24 56.858 24 56.375V49.375C24 45.9975 26.7475 43.25 30.125 43.25H44.125C44.608 43.25 45 43.642 45 44.125C45 44.608 44.608 45 44.125 45H30.125C27.7118 45 25.75 46.9618 25.75 49.375V55.5H42.375C42.858 55.5 43.25 55.892 43.25 56.375C43.25 56.858 42.858 57.25 42.375 57.25Z" fill="#B50717"/>
<path d="M43.9447 32.0202C41.8657 32.0202 40.3642 30.6079 39.589 29.6542C35.683 32.6624 31.0577 31.8994 30.8477 31.8609C30.3735 31.7769 30.0567 31.3272 30.139 30.8512C30.2212 30.3787 30.6675 30.0567 31.1487 30.1389C31.196 30.1442 35.7652 30.8809 39.155 27.7344C39.3492 27.5524 39.617 27.4649 39.8777 27.5104C40.1402 27.5489 40.3712 27.7064 40.506 27.9357C40.576 28.0547 42.2385 30.8407 44.7707 30.1564C45.2415 30.0322 45.7175 30.3069 45.8435 30.7724C45.9695 31.2397 45.6947 31.7192 45.2275 31.8452C44.7795 31.9659 44.3507 32.0202 43.9447 32.0202Z" fill="#B50717"/>
</g>
<defs>
<clipPath id="clip0_5_7830">
<rect width="42" height="42" fill="white" transform="translate(24 24)"/>
</clipPath>
</defs>
</svg>
