<svg width="90" height="90" viewBox="0 0 90 90" fill="none" xmlns="http://www.w3.org/2000/svg">
<rect width="90" height="90" rx="45" fill="white"/>
<g clip-path="url(#clip0_5_4651)">
<path d="M63.375 60.75H26.625C25.1777 60.75 24 59.5723 24 58.125V33.625C24 32.1778 25.1777 31 26.625 31H30.125C30.608 31 31 31.392 31 31.875C31 32.358 30.608 32.75 30.125 32.75H26.625C26.142 32.75 25.75 33.142 25.75 33.625V58.125C25.75 58.6063 26.142 59 26.625 59H63.375C63.858 59 64.25 58.6063 64.25 58.125V33.625C64.25 33.142 63.858 32.75 63.375 32.75H59.875C59.392 32.75 59 32.358 59 31.875C59 31.392 59.392 31 59.875 31H63.375C64.8223 31 66 32.1778 66 33.625V58.125C66 59.5723 64.8223 60.75 63.375 60.75Z" fill="#B50717"/>
<path d="M51.1248 66H38.8748C38.5213 66 38.2011 65.7865 38.0663 65.4592C37.9298 65.132 38.0051 64.7557 38.2553 64.5055C40.5583 62.2025 40.5881 59.973 40.5881 59.8785C40.5898 59.399 40.9818 59 41.4648 59H48.4998C48.9811 59 49.3731 59.3902 49.3748 59.8697C49.3766 59.98 49.4448 62.2077 51.7443 64.5055C51.9946 64.7557 52.0698 65.132 51.9333 65.4592C51.7986 65.7865 51.4783 66 51.1248 66ZM40.7491 64.25H49.2488C48.2688 62.8483 47.8803 61.5602 47.7263 60.75H42.2488C42.1001 61.5638 41.7221 62.85 40.7491 64.25Z" fill="#B50717"/>
<path d="M65.125 55.5H24.875C24.392 55.5 24 55.108 24 54.625C24 54.142 24.392 53.75 24.875 53.75H65.125C65.608 53.75 66 54.142 66 54.625C66 55.108 65.608 55.5 65.125 55.5Z" fill="#B50717"/>
<path d="M49.7478 45C48.4423 45 47.3152 44.1337 47.0667 42.9402L46.0378 37.1198C45.9573 36.7348 45.5093 36.425 45 36.425C44.4907 36.425 44.0428 36.7348 43.957 37.146L42.9368 42.914C42.683 44.1337 41.556 45 40.2522 45C38.8575 45 37.692 44.027 37.538 42.7355L37.1372 39.386C37.111 39.1672 36.7908 37.5888 35.97 33.8158C35.5745 31.9975 35.375 30.1355 35.375 28.2805C35.375 25.9198 37.2948 24 39.6555 24C40.4483 24 41.2253 24.2153 41.906 24.623C43.8153 25.7675 46.1847 25.7675 48.094 24.623C48.7747 24.2153 49.5535 24 50.3445 24C52.7052 24 54.625 25.9198 54.625 28.2805C54.625 30.1373 54.4255 31.9993 54.03 33.8175C52.994 38.5758 52.8733 39.2827 52.8628 39.386L52.4637 42.7372C52.3097 44.027 51.1425 45 49.7478 45ZM45 34.675C46.3423 34.675 47.5007 35.564 47.7562 36.7908L48.7853 42.6095C48.8588 42.963 49.2753 43.25 49.7478 43.25C50.2483 43.25 50.677 42.9333 50.7242 42.529L51.125 39.1795C51.1407 39.05 51.188 38.6562 52.3203 33.4465C52.6878 31.7507 52.875 30.013 52.875 28.2823C52.875 26.8858 51.741 25.75 50.3445 25.75C49.8702 25.75 49.403 25.8795 48.9952 26.1245C46.5312 27.6033 43.4705 27.6033 41.0065 26.1245C40.597 25.8795 40.1298 25.75 39.6555 25.75C38.259 25.75 37.125 26.884 37.125 28.2805C37.125 30.0113 37.3122 31.749 37.6797 33.4447C38.4305 36.8922 38.833 38.8208 38.875 39.1778L39.274 42.529C39.323 42.9333 39.7517 43.25 40.2522 43.25C40.7247 43.25 41.1413 42.963 41.22 42.5833L42.2403 36.817C42.4993 35.564 43.6577 34.675 45 34.675Z" fill="#B50717"/>
</g>
<defs>
<clipPath id="clip0_5_4651">
<rect width="42" height="42" fill="white" transform="translate(24 24)"/>
</clipPath>
</defs>
</svg>
