<svg width="90" height="90" viewBox="0 0 90 90" fill="none" xmlns="http://www.w3.org/2000/svg">
<rect width="90" height="90" rx="45" fill="white"/>
<g clip-path="url(#clip0_5_7812)">
<path d="M54.0668 66C51.944 66 50.117 64.5037 49.725 62.4405L47.7685 52.1558C47.5183 50.8485 46.3545 49.9 45 49.9C43.6455 49.9 42.4818 50.8485 42.2333 52.1558L40.2768 62.4388C39.883 64.5038 38.0578 66 35.9333 66C33.6705 66 31.7823 64.3235 31.5408 62.0992L30.7743 55.0572C30.4978 52.5092 29.9553 49.9858 29.1608 47.5515L27.6663 42.9665C26.3958 39.0658 25.75 35.011 25.75 30.9125C25.75 27.101 28.8895 24 32.75 24C35.5938 24 38.3413 24.693 41.297 26.1192C43.789 27.3232 46.2128 27.3232 48.703 26.1192C51.6588 24.693 54.4063 24 57.1013 24C61.1105 24 64.25 27.101 64.25 30.9125C64.25 35.0093 63.6043 39.0657 62.3338 42.9682L60.8393 47.5515C60.0448 49.9858 59.5023 52.5092 59.2258 55.0572L58.4593 62.0992C58.2178 64.3235 56.3295 66 54.0668 66ZM45 48.15C47.1945 48.15 49.0828 49.697 49.4853 51.8302L51.4418 62.1132C51.678 63.3505 52.7823 64.25 54.0668 64.25C55.4335 64.25 56.5745 63.2438 56.7198 61.9103L57.4863 54.8682C57.7768 52.203 58.3455 49.557 59.1768 47.009L60.6713 42.4258C61.884 38.7 62.5 34.8255 62.5 30.9125C62.5 28.0653 60.1445 25.75 57.25 25.75C54.674 25.75 52.1768 26.387 49.4643 27.696C46.5015 29.1257 43.4968 29.1257 40.5358 27.696C37.8233 26.387 35.326 25.75 32.8988 25.75C29.8555 25.75 27.5 28.0653 27.5 30.9125C27.5 34.8255 28.116 38.7 29.3305 42.4258L30.825 47.009C31.6563 49.557 32.225 52.2013 32.5138 54.8665L33.2803 61.9085C33.4255 63.2438 34.5665 64.25 35.9333 64.25C37.2178 64.25 38.3203 63.3505 38.5565 62.1115L40.513 51.8285C40.9173 49.697 42.8055 48.15 45 48.15Z" fill="#B50717"/>
<path d="M61.1875 43.25H55.038C53.3703 43.25 51.8722 42.3243 51.125 40.8315L50.4337 39.4508C49.9875 38.5565 49.0862 38 48.087 38H41.913C40.9138 38 40.0125 38.5565 39.5663 39.4508L38.875 40.8315C38.1278 42.3243 36.6297 43.25 34.962 43.25H28.8125C28.3295 43.25 27.9375 42.858 27.9375 42.375C27.9375 41.892 28.3295 41.5 28.8125 41.5H34.962C35.9612 41.5 36.8608 40.9435 37.3088 40.0492L38 38.6685C38.7472 37.1758 40.2453 36.25 41.913 36.25H48.087C49.7547 36.25 51.2528 37.1758 52 38.6685L52.6913 40.0492C53.1375 40.9435 54.0388 41.5 55.038 41.5H61.1875C61.6705 41.5 62.0625 41.892 62.0625 42.375C62.0625 42.858 61.6705 43.25 61.1875 43.25Z" fill="#B50717"/>
</g>
<defs>
<clipPath id="clip0_5_7812">
<rect width="42" height="42" fill="white" transform="translate(24 24)"/>
</clipPath>
</defs>
</svg>
