<svg width="90" height="90" viewBox="0 0 90 90" fill="none" xmlns="http://www.w3.org/2000/svg">
<rect width="90" height="90" rx="45" fill="white"/>
<g clip-path="url(#clip0_5_7836)">
<path d="M49.7495 48.5C48.4457 48.5 47.317 47.6338 47.0685 46.442L46.0395 40.6215C45.9572 40.2365 45.5092 39.925 45 39.925C44.4908 39.925 44.0427 40.2365 43.9552 40.6477L42.9368 46.414C42.683 47.6337 41.5543 48.5 40.2505 48.5C38.8558 48.5 37.6885 47.527 37.5363 46.2355L37.1372 42.886C37.1127 42.697 36.8923 41.5753 35.97 37.3158C35.5745 35.4993 35.375 33.6372 35.375 31.7805C35.375 29.4198 37.2947 27.5 39.6537 27.5C40.4465 27.5 41.2253 27.7152 41.906 28.123C43.8135 29.2657 46.183 29.2657 48.094 28.123C48.773 27.7152 49.5535 27.5 50.3463 27.5C52.7052 27.5 54.625 29.4198 54.625 31.7805C54.625 33.639 54.4255 35.501 54.0283 37.3193C52.9958 42.0688 52.875 42.781 52.861 42.886L52.462 46.2372C52.3115 47.527 51.1442 48.5 49.7495 48.5ZM45 38.175C46.3405 38.175 47.5007 39.064 47.7562 40.289L48.7852 46.1095C48.8605 46.463 49.277 46.75 49.7495 46.75C50.2483 46.75 50.677 46.4333 50.7277 46.029L51.1268 42.6795C51.167 42.326 51.5695 40.3975 52.322 36.9465C52.6895 35.2507 52.875 33.5148 52.875 31.7805C52.875 30.3858 51.741 29.25 50.3463 29.25C49.8703 29.25 49.403 29.3795 48.997 29.6245C46.533 31.1015 43.4722 31.1015 41.0082 29.6245C40.597 29.3795 40.1315 29.25 39.6537 29.25C38.259 29.25 37.125 30.384 37.125 31.7805C37.125 33.513 37.3105 35.249 37.6797 36.9447C38.476 40.618 38.833 42.333 38.875 42.6813L39.274 46.0308C39.323 46.4333 39.7518 46.75 40.2505 46.75C40.723 46.75 41.1395 46.463 41.22 46.0833L42.2385 40.317C42.4992 39.064 43.6595 38.175 45 38.175Z" fill="#B50717"/>
<path d="M61.625 60.75H28.375C25.9618 60.75 24 58.7865 24 56.375V40.625C24 39.1777 25.1777 38 26.625 38H28.8457C30.93 38 32.7378 39.4893 33.1403 41.542C33.7283 44.51 34.0573 46.6117 34.0573 46.6117C34.4195 49.6987 37.0813 52 40.2505 52C41.7852 52 43.2605 51.4417 44.4067 50.4268C44.7358 50.1345 45.2362 50.1345 45.5635 50.425C46.7185 51.4418 48.2043 52 49.7495 52C52.9205 52 55.5805 49.7005 55.9392 46.6485C55.9427 46.617 56.2595 44.5572 56.8563 41.5402C57.2622 39.4892 59.0682 38 61.1507 38H63.375C64.8223 38 66 39.1777 66 40.625V56.375C66 58.7865 64.0382 60.75 61.625 60.75ZM26.625 39.75C26.1437 39.75 25.75 40.142 25.75 40.625V56.375C25.75 57.8223 26.9277 59 28.375 59H61.625C63.0723 59 64.25 57.8223 64.25 56.375V40.625C64.25 40.142 63.8563 39.75 63.375 39.75H61.1507C59.9012 39.75 58.8162 40.646 58.5712 41.8815C57.985 44.8478 57.6717 46.876 57.67 46.8847C57.2132 50.7855 53.806 53.75 49.7495 53.75C48.0292 53.75 46.3633 53.2057 44.9878 52.203C43.6192 53.2057 41.9638 53.75 40.2505 53.75C36.194 53.75 32.785 50.7838 32.323 46.8498C32.3212 46.8498 31.9975 44.7865 31.4235 41.8815C31.182 40.646 30.0953 39.75 28.8457 39.75H26.625Z" fill="#B50717"/>
</g>
<defs>
<clipPath id="clip0_5_7836">
<rect width="42" height="42" fill="white" transform="translate(24 24)"/>
</clipPath>
</defs>
</svg>
