<svg width="90" height="90" viewBox="0 0 90 90" fill="none" xmlns="http://www.w3.org/2000/svg">
<rect width="90" height="90" rx="45" fill="white"/>
<g clip-path="url(#clip0_5_7824)">
<path d="M35.0777 62.5001C34.5632 62.5001 34.0592 62.3584 33.6217 62.0906C32.5175 61.4641 31.9662 60.1569 32.3355 58.9966L34.3602 53.4334C34.3777 53.3669 34.3952 53.2776 34.3952 53.2076C34.3952 52.8629 34.1677 52.5076 33.8142 52.3011C33.3785 52.0544 32.8255 52.0999 32.5385 52.4149L28.783 56.9001C27.9412 57.8381 26.4642 57.9974 25.3967 57.3464C24.212 56.6656 23.6835 55.2376 24.191 54.0371L25.5227 50.9344C25.6435 50.6526 26.4887 48.0801 27.2955 45.5374C27.852 43.7786 28.615 42.0636 29.5617 40.4431C30.33 39.1026 31.7195 38.2976 33.2752 38.2976C33.991 38.2976 34.7417 38.5006 35.3875 38.8681C36.1102 39.2951 36.6772 39.8796 37.0412 40.5656C38.0982 42.4521 40.1055 43.6351 42.2702 43.6351H42.4977C43.2275 43.6351 43.9695 43.8381 44.645 44.2214C45.0405 44.4401 45.3975 44.7289 45.6967 45.0736C46.0135 45.4394 45.9732 45.9924 45.6092 46.3091C45.2452 46.6259 44.6922 46.5856 44.3737 46.2216C44.2127 46.0344 44.0097 45.8716 43.7892 45.7491C43.3675 45.5094 42.923 45.3851 42.4977 45.3851H42.2702C39.472 45.3851 36.8802 43.8591 35.5047 41.4021C35.279 40.9786 34.9465 40.6409 34.509 40.3801C33.3137 39.7011 31.7405 40.1631 31.0772 41.3216C30.1917 42.8371 29.4812 44.4331 28.9632 46.0694C28.5572 47.3504 27.348 51.1216 27.131 51.6274L25.801 54.7266C25.6417 55.1029 25.857 55.5964 26.291 55.8449C26.9157 56.2264 27.243 56.0006 27.4617 55.7556L31.2207 51.2651C32.0817 50.3219 33.529 50.1311 34.684 50.7856C35.5887 51.3124 36.1435 52.2381 36.1435 53.2094C36.1435 53.4526 36.1032 53.7046 36.0192 53.9846L33.9927 59.5619C33.886 59.8979 34.1047 60.3529 34.5125 60.5839C34.7417 60.7239 34.943 60.7501 35.0777 60.7501C35.3437 60.7501 35.5852 60.6399 35.7252 60.4526L37.736 57.7576C37.9705 57.4391 39.4055 55.8501 41.6402 53.3879C42.8075 52.1034 43.8417 50.6929 44.7167 49.1949C44.7815 49.0776 44.8445 48.9394 44.897 48.7889C45.0055 48.4266 45.3397 48.1589 45.7352 48.1589C46.2182 48.1589 46.6102 48.5421 46.6102 49.0251V49.0426C46.6102 49.1371 46.5945 49.2299 46.5647 49.3191C46.479 49.5799 46.3705 49.8179 46.241 50.0559C45.2925 51.6799 44.1847 53.1901 42.9352 54.5639C41.8712 55.7364 39.3792 58.4786 39.1412 58.8006L37.1252 61.5009C36.6562 62.1274 35.8915 62.5001 35.0777 62.5001Z" fill="#B50717"/>
<path d="M57.6227 55.5C56.3172 55.5 55.1902 54.6337 54.9417 53.4403L53.9128 47.6197C53.8323 47.2347 53.3842 46.925 52.875 46.925C52.3658 46.925 51.9178 47.2347 51.832 47.646L50.8118 53.414C50.558 54.6338 49.431 55.5 48.1272 55.5C46.7325 55.5 45.567 54.527 45.413 53.2355L45.014 49.886C44.9878 49.6672 44.6675 48.0887 43.8467 44.3158C43.4495 42.4975 43.25 40.6355 43.25 38.7805C43.25 36.4198 45.1698 34.5 47.5305 34.5C48.3233 34.5 49.1003 34.7152 49.781 35.123C51.6903 36.2675 54.0597 36.2675 55.969 35.123C56.6497 34.7152 57.4285 34.5 58.2195 34.5C60.5803 34.5 62.5 36.4198 62.5 38.7805C62.5 40.6372 62.3005 42.4992 61.905 44.3175C60.869 49.0757 60.7483 49.7828 60.7378 49.886L60.3387 53.2373C60.1847 54.527 59.0175 55.5 57.6227 55.5ZM52.875 45.175C54.2172 45.175 55.3758 46.064 55.6313 47.2908L56.6602 53.1095C56.7338 53.463 57.1502 53.75 57.6227 53.75C58.1232 53.75 58.552 53.4332 58.5992 53.029L59 49.6795C59.0157 49.55 59.063 49.1562 60.1953 43.9465C60.5628 42.2507 60.75 40.513 60.75 38.7805C60.75 37.3858 59.616 36.25 58.2195 36.25C57.7453 36.25 57.278 36.3795 56.8703 36.6245C54.4063 38.1033 51.3455 38.1033 48.8815 36.6245C48.472 36.3795 48.0048 36.25 47.5305 36.25C46.134 36.25 45 37.384 45 38.7805C45 40.5113 45.1873 42.249 45.5548 43.9448C46.3055 47.3923 46.7062 49.3208 46.75 49.6778L47.149 53.029C47.198 53.4332 47.6267 53.75 48.1272 53.75C48.5997 53.75 49.0163 53.463 49.095 53.0832L50.1153 47.317C50.3743 46.064 51.5328 45.175 52.875 45.175Z" fill="#B50717"/>
<path d="M24.8752 44.9999C24.5287 44.9999 24.1997 44.7917 24.0632 44.4504C23.8829 44.0024 24.1017 43.4932 24.5514 43.3129L28.9264 41.5629C29.3709 41.3827 29.8837 41.6014 30.0639 42.0512C30.2442 42.4992 30.0254 43.0084 29.5757 43.1887L25.2007 44.9387C25.0939 44.9807 24.9837 44.9999 24.8752 44.9999Z" fill="#B50717"/>
<path d="M65.1248 45C64.9935 45 64.8605 44.9703 64.7345 44.9073L61.2345 43.1573C60.8023 42.9403 60.6273 42.4153 60.8425 41.983C61.0595 41.5508 61.5828 41.3775 62.0168 41.591L65.5168 43.341C65.949 43.558 66.124 44.083 65.9088 44.5153C65.753 44.8233 65.445 45 65.1248 45Z" fill="#B50717"/>
<path d="M35.8527 33.7895C35.7249 33.7895 35.5972 33.7615 35.4747 33.7037L33.2452 32.6292C32.8094 32.4192 32.6274 31.896 32.8357 31.462C33.0474 31.0262 33.5707 30.8425 34.0047 31.0525L36.2342 32.127C36.6699 32.337 36.8537 32.8602 36.6437 33.2942C36.4914 33.6075 36.1782 33.7895 35.8527 33.7895Z" fill="#B50717"/>
<path d="M42.4608 31.4796C42.3331 31.4796 42.2053 31.4516 42.0828 31.3939C41.6471 31.1839 41.4633 30.6606 41.6733 30.2266L42.7478 27.9971C42.9596 27.5614 43.4828 27.3794 43.9151 27.5876C44.3508 27.7976 44.5346 28.3209 44.3246 28.7549L43.2501 30.9844C43.0996 31.2976 42.7863 31.4796 42.4608 31.4796Z" fill="#B50717"/>
<path d="M38.5811 30.9825C38.2189 30.9825 37.8811 30.7567 37.7551 30.3962L37.1776 28.7442C37.0184 28.2892 37.2581 27.7905 37.7149 27.6295C38.1751 27.4737 38.6704 27.7117 38.8296 28.1667L39.4071 29.8187C39.5664 30.2755 39.3266 30.7742 38.8699 30.9335C38.7736 30.9667 38.6774 30.9825 38.5811 30.9825Z" fill="#B50717"/>
</g>
<defs>
<clipPath id="clip0_5_7824">
<rect width="42" height="42" fill="white" transform="translate(24 24)"/>
</clipPath>
</defs>
</svg>
