<svg width="38" height="49" viewBox="0 0 38 49" fill="none" xmlns="http://www.w3.org/2000/svg">
<g opacity="0.6">
<path d="M18.2929 34.7071C18.6834 35.0976 19.3166 35.0976 19.7071 34.7071L26.0711 28.3431C26.4616 27.9526 26.4616 27.3195 26.0711 26.9289C25.6805 26.5384 25.0474 26.5384 24.6569 26.9289L19 32.5858L13.3431 26.9289C12.9526 26.5384 12.3195 26.5384 11.9289 26.9289C11.5384 27.3195 11.5384 27.9526 11.9289 28.3431L18.2929 34.7071ZM18 -4.38422e-08L18 34L20 34L20 4.38422e-08L18 -4.38422e-08Z" fill="white"/>
<mask id="path-2-inside-1_94_10988" fill="white">
<path d="M5.56497 16.4683C2.90777 19.1335 1.0982 22.5291 0.365077 26.2258C-0.368039 29.9224 0.00822349 33.7541 1.44629 37.2363C2.88435 40.7185 5.31963 43.6948 8.44416 45.7888C11.5687 47.8828 15.2422 49.0004 19 49.0004C22.7578 49.0004 26.4313 47.8828 29.5558 45.7888C32.6804 43.6948 35.1156 40.7185 36.5537 37.2363C37.9918 33.7541 38.368 29.9224 37.6349 26.2258C36.9018 22.5291 35.0922 19.1335 32.435 16.4683L31.3302 17.5765C33.7689 20.0224 35.4297 23.1388 36.1025 26.5315C36.7753 29.9242 36.43 33.4408 35.1102 36.6366C33.7904 39.8324 31.5554 42.5639 28.6878 44.4857C25.8202 46.4075 22.4488 47.4333 19 47.4333C15.5512 47.4333 12.1798 46.4075 9.31221 44.4857C6.44462 42.5639 4.20961 39.8324 2.8898 36.6366C1.56999 33.4408 1.22467 29.9242 1.89751 26.5315C2.57034 23.1388 4.2311 20.0224 6.66979 17.5765L5.56497 16.4683Z"/>
</mask>
<path d="M5.56497 16.4683C2.90777 19.1335 1.0982 22.5291 0.365077 26.2258C-0.368039 29.9224 0.00822349 33.7541 1.44629 37.2363C2.88435 40.7185 5.31963 43.6948 8.44416 45.7888C11.5687 47.8828 15.2422 49.0004 19 49.0004C22.7578 49.0004 26.4313 47.8828 29.5558 45.7888C32.6804 43.6948 35.1156 40.7185 36.5537 37.2363C37.9918 33.7541 38.368 29.9224 37.6349 26.2258C36.9018 22.5291 35.0922 19.1335 32.435 16.4683L31.3302 17.5765C33.7689 20.0224 35.4297 23.1388 36.1025 26.5315C36.7753 29.9242 36.43 33.4408 35.1102 36.6366C33.7904 39.8324 31.5554 42.5639 28.6878 44.4857C25.8202 46.4075 22.4488 47.4333 19 47.4333C15.5512 47.4333 12.1798 46.4075 9.31221 44.4857C6.44462 42.5639 4.20961 39.8324 2.8898 36.6366C1.56999 33.4408 1.22467 29.9242 1.89751 26.5315C2.57034 23.1388 4.2311 20.0224 6.66979 17.5765L5.56497 16.4683Z" stroke="white" stroke-width="1.70235" mask="url(#path-2-inside-1_94_10988)"/>
</g>
</svg>
