<svg width="42" height="43" viewBox="0 0 42 43" fill="none" xmlns="http://www.w3.org/2000/svg">
<g clip-path="url(#clip0_102_4926)">
<path d="M30.4828 37.9226C27.6937 39.5386 24.4535 40.4573 21 40.4573C10.5328 40.4573 2.04257 31.9671 2.04257 21.4999C2.04257 11.0327 10.5328 2.54248 21 2.54248C24.4535 2.54248 27.6937 3.46943 30.4828 5.07725C24.8144 8.35029 21 14.478 21 21.4999C21 28.5218 24.8144 34.6413 30.4828 37.9226Z" fill="white"/>
<path d="M39.9902 12.5175C38.2758 8.88354 35.5605 5.83198 32.1398 3.69096C27.382 0.721428 21.7465 -0.221931 16.2832 1.04135C10.8199 2.29643 6.16874 5.61049 3.19921 10.3683C0.221473 15.1261 -0.721886 20.7535 0.541395 26.2249C1.80468 31.6882 5.11874 36.3394 9.86835 39.3089C13.2152 41.4007 17.0543 42.5081 20.9836 42.5081H21.2379C25.1508 42.4589 28.957 41.3269 32.2547 39.2433C33.2144 38.6363 33.4933 37.373 32.8863 36.4132C32.2793 35.4535 31.016 35.1746 30.0562 35.7816C27.4066 37.4632 24.3387 38.3738 21.1887 38.4148C17.9566 38.4558 14.7984 37.5617 12.0422 35.8472C8.21132 33.4519 5.5453 29.7113 4.53632 25.3144C3.51913 20.9175 4.28202 16.3894 6.67733 12.5585C11.6156 4.65893 22.0664 2.24721 29.966 7.18549C32.7223 8.90815 34.9043 11.3609 36.2824 14.2812C37.6277 17.1277 38.1527 20.2859 37.8 23.4031C37.6769 24.5269 38.4808 25.5441 39.6129 25.6671C40.7367 25.7902 41.7539 24.9863 41.8769 23.8542C42.3117 19.9742 41.6555 16.0531 39.9902 12.5175Z" fill="#B50717"/>
<path d="M27.7757 14.3795L17.891 24.2725L14.2242 20.6057C13.4203 19.8018 12.1242 19.8018 11.3203 20.6057C10.5164 21.4096 10.5164 22.7057 11.3203 23.5096L16.439 28.6284C16.841 29.0303 17.366 29.2272 17.891 29.2272C18.416 29.2272 18.941 29.0303 19.3429 28.6284L30.6797 17.2834C31.4836 16.4795 31.4836 15.1834 30.6797 14.3795C29.8757 13.5756 28.5797 13.5756 27.7757 14.3795Z" fill="#B50717"/>
</g>
<defs>
<clipPath id="clip0_102_4926">
<rect width="42" height="42" fill="white" transform="translate(0 0.5)"/>
</clipPath>
</defs>
</svg>
