<svg width="26" height="26" viewBox="0 0 26 26" fill="none" xmlns="http://www.w3.org/2000/svg">
<circle cx="13" cy="13" r="13" fill="#F4B346"/>
<path d="M17.7004 15.119L16.0494 14.9305C15.8552 14.9077 15.6585 14.9292 15.4738 14.9934C15.2892 15.0575 15.1215 15.1627 14.9834 15.301L13.7874 16.497C11.9421 15.5585 10.4423 14.0587 9.50386 12.2135L10.7064 11.011C10.9859 10.7315 11.1224 10.3415 11.0769 9.945L10.8884 8.307C10.8515 7.98991 10.6993 7.69745 10.4608 7.4853C10.2223 7.27314 9.91408 7.15612 9.59486 7.1565H8.47036C7.73586 7.1565 7.12486 7.7675 7.17036 8.502C7.51486 14.053 11.9544 18.486 17.4989 18.8305C18.2334 18.876 18.8444 18.265 18.8444 17.5305V16.406C18.8509 15.7495 18.3569 15.197 17.7004 15.119Z" fill="white"/>
</svg>
