<svg width="35" height="36" viewBox="0 0 35 36" fill="none" xmlns="http://www.w3.org/2000/svg">
<rect y="0.892578" width="34.2151" height="34.2151" rx="17.1075" fill="#B50717"/>
<rect y="0.892578" width="34.2151" height="34.2151" rx="17.1075" stroke="#B50717"/>
<path fill-rule="evenodd" clip-rule="evenodd" d="M16.8111 22.5533C16.1541 23.2012 15.5041 23.8376 14.8598 24.4797C14.6345 24.7042 14.3811 24.8282 14.0579 24.8106C13.8379 24.7986 13.7143 24.6997 13.6469 24.4874C13.1538 22.9355 12.6526 21.3862 12.1617 19.8337C12.1139 19.6825 12.0419 19.6098 11.8919 19.5634C10.7291 19.2032 9.56874 18.8351 8.40984 18.4626C8.23825 18.4074 8.06451 18.3365 7.91563 18.2364C7.65652 18.0623 7.61954 17.7854 7.85616 17.5849C8.0748 17.3997 8.334 17.2446 8.59955 17.1381C10.0687 16.5494 11.5454 15.9798 13.0194 15.4035C16.5651 14.0169 20.1109 12.6305 23.6564 11.2434C24.3361 10.9774 24.8642 11.3462 24.8006 12.0888C24.7586 12.5784 24.6328 13.0615 24.5319 13.5448C23.7462 17.3063 22.9574 21.0671 22.1697 24.8282C22.1681 24.8355 22.1677 24.8429 22.166 24.8501C21.9734 25.7105 21.3564 25.9458 20.6529 25.4212C19.4316 24.5107 18.2134 23.596 16.9937 22.6834C16.936 22.6402 16.8764 22.5997 16.8111 22.5533ZM14.1124 23.7379C14.1314 23.6496 14.1445 23.6088 14.1484 23.5672C14.2259 22.7214 14.3069 21.8758 14.3755 21.0292C14.3908 20.8413 14.4461 20.7025 14.5896 20.5721C16.4403 18.8889 18.2854 17.1992 20.1319 15.5112C20.6572 15.0311 21.1846 14.5533 21.7047 14.0676C21.7594 14.0166 21.7712 13.9186 21.8029 13.8424C21.7226 13.8193 21.6325 13.7609 21.5639 13.7803C21.4054 13.825 21.2456 13.8889 21.1065 13.9775C18.3611 15.7271 15.6192 17.4823 12.8737 19.2317C12.7341 19.3207 12.6942 19.394 12.7502 19.5645C13.1849 20.8876 13.6071 22.215 14.0337 23.5408C14.0505 23.5927 14.074 23.6424 14.1124 23.7379Z" fill="white"/>
</svg>
