<svg width="178" height="41" viewBox="0 0 178 41" fill="none" xmlns="http://www.w3.org/2000/svg">
<path d="M1.9699 30.4225L0.846615 29.7866C0.675079 29.6896 0.453741 29.6896 0.282205 29.7866C0.110669 29.8836 0 30.0668 0 30.2608V31.5272C0 31.7212 0.105135 31.9044 0.282205 32.0014L1.40549 32.6373C1.48849 32.6858 1.58809 32.7127 1.6877 32.7127C1.7873 32.7127 1.88137 32.6858 1.9699 32.6373C2.14144 32.5403 2.25211 32.3571 2.25211 32.1631V30.8967C2.25211 30.6973 2.14697 30.5195 1.9699 30.4225Z" fill="#A98054"/>
<path d="M6.9168 25.5355L0.846616 22.1083C0.67508 22.0113 0.453742 22.0113 0.282205 22.1083C0.110669 22.2053 0 22.3939 0 22.5879V23.8542C0 24.0482 0.105135 24.2315 0.282205 24.3285L4.94689 26.9582V34.3462C4.94689 34.5402 5.05203 34.7234 5.2291 34.8204L6.35239 35.4509C6.43539 35.4994 6.53499 35.5264 6.63459 35.5264C6.7342 35.5264 6.82826 35.4994 6.9168 35.4509C7.08834 35.3539 7.19901 35.1707 7.19901 34.9767V26.0044C7.19347 25.8104 7.08834 25.6325 6.9168 25.5355Z" fill="#A98054"/>
<path d="M11.8582 20.6419L0.846616 14.4232C0.67508 14.3262 0.453742 14.3262 0.282205 14.4232C0.110669 14.5202 0 14.7088 0 14.9028V16.1638C0 16.3578 0.105135 16.541 0.282205 16.638L9.88826 22.0591V37.1154C9.88826 37.3094 9.99339 37.4926 10.1705 37.5896L11.2937 38.2201C11.3768 38.2686 11.4764 38.2955 11.576 38.2955C11.6756 38.2955 11.7696 38.2686 11.8582 38.2201C12.0297 38.1231 12.1404 37.9399 12.1404 37.7459V21.1161C12.1404 20.9221 12.0297 20.7389 11.8582 20.6419Z" fill="#A98054"/>
<path d="M31.6294 29.7866C31.4579 29.6896 31.2365 29.6896 31.0705 29.7866L29.9472 30.4225C29.7757 30.5195 29.665 30.7027 29.665 30.8967V32.1631C29.665 32.3571 29.7702 32.5403 29.9472 32.6373C30.0302 32.6858 30.1298 32.7127 30.2294 32.7127C30.3291 32.7127 30.4231 32.6858 30.5117 32.6373L31.6349 32.0014C31.8065 31.9044 31.9171 31.7212 31.9171 31.5272V30.2608C31.9116 30.0668 31.8065 29.889 31.6294 29.7866Z" fill="#A98054"/>
<path d="M31.629 22.1083C31.4575 22.0113 31.2362 22.0113 31.0646 22.1083L25 25.5302C24.8284 25.6272 24.7178 25.8104 24.7178 26.0044V34.9659C24.7178 35.1599 24.8229 35.3431 25 35.4401C25.083 35.4886 25.1826 35.5156 25.2822 35.5156C25.3818 35.5156 25.4759 35.4886 25.5644 35.4401L26.6877 34.8096C26.8592 34.7127 26.9699 34.5294 26.9699 34.3354V26.9528L31.6346 24.3231C31.8061 24.2261 31.9168 24.0428 31.9168 23.8489V22.5771C31.9112 22.3885 31.8061 22.2107 31.629 22.1083Z" fill="#A98054"/>
<path d="M31.6283 14.4232C31.4568 14.3262 31.2355 14.3262 31.0639 14.4232L20.0579 20.6419C19.8864 20.7389 19.7812 20.9221 19.7812 21.1161V37.7459C19.7812 37.9399 19.8864 38.1231 20.0635 38.2201C20.1465 38.2686 20.2461 38.2955 20.3457 38.2955C20.4453 38.2955 20.5393 38.2686 20.6279 38.2201L21.7512 37.5896C21.9227 37.4926 22.0334 37.3094 22.0334 37.1154V22.0591L31.6394 16.638C31.8109 16.541 31.9216 16.3578 31.9216 16.1638V14.8974C31.9105 14.7088 31.8054 14.5202 31.6283 14.4232Z" fill="#A98054"/>
<path d="M31.2809 8.84096C31.2809 8.64697 31.1758 8.46375 30.9987 8.36675L29.8754 7.73626C29.7039 7.63926 29.4825 7.63926 29.311 7.73626L15.9588 15.2698L2.60662 7.74165C2.43509 7.64465 2.21375 7.64465 2.04221 7.74165L0.918924 8.37214C0.747387 8.46914 0.636719 8.65236 0.636719 8.84635C0.636719 9.04035 0.741854 9.22357 0.918924 9.32056L14.8355 17.172V39.9019C14.8355 40.0959 14.9407 40.2791 15.1177 40.3761L15.6766 40.6941C15.7596 40.7426 15.8592 40.7695 15.9588 40.7695C16.0584 40.7695 16.1525 40.7426 16.241 40.6941L16.8054 40.3761C16.977 40.2791 17.0876 40.0959 17.0876 39.9019V17.1666L31.0042 9.32056C31.1702 9.21818 31.2809 9.03496 31.2809 8.84096Z" fill="#A98054"/>
<path d="M7.73631 5.48347L15.6768 9.96155C15.7598 10.0101 15.8594 10.037 15.959 10.037C16.0586 10.037 16.1527 10.0101 16.2412 9.96155L24.1817 5.48347C24.3532 5.38647 24.4639 5.20325 24.4639 5.00926C24.4639 4.81526 24.3588 4.63204 24.1817 4.53504L23.0584 3.90455C22.8869 3.80756 22.6655 3.80756 22.494 3.90455L15.959 7.59049L9.42401 3.89916C9.25247 3.80217 9.03113 3.80217 8.8596 3.89916L7.73631 4.52965C7.56477 4.62665 7.4541 4.80987 7.4541 5.00387C7.4541 5.19786 7.56477 5.38108 7.73631 5.48347Z" fill="#A98054"/>
<path d="M14.5586 1.65197L15.6819 2.28246C15.7649 2.33096 15.8645 2.3579 15.9641 2.3579C16.0637 2.3579 16.1577 2.33096 16.2463 2.28246L17.3696 1.65197C17.5411 1.55497 17.6518 1.37175 17.6518 1.17776C17.6518 0.983759 17.5466 0.80054 17.3696 0.703542L16.2407 0.0730538C16.0692 -0.0239444 15.8479 -0.0239444 15.6819 0.0730538L14.5586 0.698153C14.387 0.80054 14.2764 0.978371 14.2764 1.17237C14.2764 1.36636 14.3815 1.54958 14.5586 1.65197Z" fill="#A98054"/>
<path d="M57.2932 9.26013H53.6965V19.682H51.4831V9.26013H47.8643V7.27167H57.2932V9.26013Z" fill="white"/>
<path d="M66.2964 12.1813C66.7999 12.7525 67.0544 13.5501 67.0544 14.5739V19.6825H65.0126V14.7356C65.0126 14.2237 64.8964 13.8249 64.6585 13.5393C64.4205 13.2537 64.0609 13.1082 63.5739 13.1082C62.9376 13.1082 62.4396 13.3345 62.0854 13.7818C61.7313 14.2344 61.5487 14.8003 61.5487 15.4792V19.6771H59.5068V6.53925H61.5487V11.3945C61.5487 11.8957 61.5431 12.3052 61.5321 12.634C62.1075 11.7556 62.9597 11.3191 64.0996 11.3191C65.0569 11.3245 65.7928 11.6101 66.2964 12.1813Z" fill="white"/>
<path d="M76.5659 12.3967C77.2465 13.1134 77.5896 14.0888 77.5896 15.3175C77.5896 15.5114 77.5619 15.8294 77.5121 16.2659H71.5139C71.6411 16.9125 71.9399 17.4083 72.4213 17.7532C72.9027 18.0981 73.4838 18.2759 74.1754 18.2759C74.6402 18.2759 75.0497 18.2112 75.4039 18.0819C75.758 17.9526 76.09 17.764 76.3888 17.5053L77.252 18.7824C76.7651 19.1597 76.2615 19.4453 75.7359 19.6285C75.2102 19.8171 74.6292 19.9141 73.9928 19.9141C73.1075 19.9141 72.3217 19.7309 71.6411 19.3644C70.9605 18.998 70.4293 18.4861 70.0475 17.834C69.6657 17.1766 69.4775 16.4275 69.4775 15.5869C69.4775 14.7947 69.6601 14.0726 70.0309 13.426C70.4016 12.7739 70.9107 12.262 71.5692 11.8848C72.2277 11.5076 72.9636 11.319 73.7881 11.319C74.9557 11.3244 75.8853 11.68 76.5659 12.3967ZM72.3051 13.4691C71.9067 13.814 71.6411 14.299 71.5194 14.9187H75.6584C75.6307 14.2882 75.4481 13.7978 75.094 13.4583C74.7454 13.1188 74.2916 12.9464 73.7438 12.9464C73.185 12.9464 72.7035 13.1188 72.3051 13.4691Z" fill="white"/>
<path d="M85.6854 11.7069L85.1598 13.3882C84.8112 13.2643 84.446 13.205 84.0752 13.205C83.4776 13.205 82.9962 13.3882 82.631 13.7547C82.2658 14.1211 82.0887 14.6169 82.0887 15.2528V19.6877H80.0469V11.5399H81.4358L81.8286 12.747C82.0666 12.2943 82.393 11.9548 82.8025 11.7177C83.212 11.4806 83.6934 11.3621 84.2467 11.3621C84.789 11.3567 85.2704 11.4752 85.6854 11.7069Z" fill="white"/>
<path d="M99.4415 12.1542C99.9395 12.7093 100.189 13.4691 100.189 14.4445V19.6824H98.1467V14.6654C98.1467 14.1804 98.0249 13.7978 97.7815 13.523C97.538 13.2482 97.2115 13.1134 96.7965 13.1134C96.1823 13.1134 95.7175 13.3344 95.4021 13.7709C95.0867 14.2074 94.9262 14.7247 94.9262 15.3228V19.6824H92.901V14.6439C92.901 14.2074 92.7848 13.8409 92.5468 13.5499C92.3089 13.2589 91.9714 13.1134 91.5342 13.1134C90.9366 13.1134 90.4773 13.3344 90.1564 13.7709C89.8354 14.2074 89.6805 14.7247 89.6805 15.3228V19.6824H87.6387V11.5399H89.0276L89.4426 12.8332C89.7303 12.3482 90.101 11.971 90.5493 11.7124C90.9975 11.4483 91.5176 11.319 92.1042 11.319C92.6907 11.319 93.1998 11.4483 93.6314 11.7016C94.063 11.9548 94.3895 12.3105 94.6163 12.7578C94.893 12.3051 95.2582 11.9548 95.723 11.7016C96.1823 11.4483 96.7246 11.319 97.3333 11.319C98.2352 11.3244 98.938 11.5992 99.4415 12.1542Z" fill="white"/>
<path d="M104.753 19.3757C104.073 19.0093 103.542 18.4974 103.16 17.8453C102.778 17.1879 102.59 16.4442 102.59 15.6198C102.59 14.7899 102.778 14.0516 103.16 13.3996C103.542 12.7475 104.073 12.241 104.753 11.8745C105.434 11.5081 106.203 11.3249 107.066 11.3249C107.93 11.3249 108.704 11.5081 109.39 11.8745C110.077 12.241 110.613 12.7475 110.995 13.3996C111.377 14.0516 111.565 14.7899 111.565 15.6198C111.565 16.4496 111.377 17.1879 110.995 17.8453C110.613 18.5028 110.082 19.0147 109.39 19.3757C108.704 19.7422 107.93 19.9254 107.066 19.9254C106.203 19.9254 105.434 19.7422 104.753 19.3757ZM108.821 17.4519C109.263 16.9831 109.485 16.3742 109.485 15.6198C109.485 14.8653 109.263 14.2564 108.821 13.7876C108.378 13.3187 107.791 13.087 107.066 13.087C106.353 13.087 105.772 13.3241 105.323 13.7983C104.875 14.2726 104.648 14.8815 104.648 15.6251C104.648 16.3688 104.875 16.9777 105.323 17.4519C105.772 17.9262 106.353 18.1633 107.066 18.1633C107.791 18.1525 108.378 17.9208 108.821 17.4519Z" fill="white"/>
<path d="M122.4 6.53925V19.6825H120.994L120.64 18.4592C120.292 18.9119 119.86 19.2568 119.356 19.5101C118.853 19.7633 118.272 19.8819 117.624 19.8819C116.839 19.8819 116.136 19.6987 115.527 19.3322C114.919 18.9658 114.443 18.4592 114.105 17.8072C113.768 17.1552 113.602 16.4061 113.602 15.5547C113.602 14.7518 113.773 14.0297 114.116 13.383C114.459 12.7364 114.935 12.2352 115.549 11.8795C116.164 11.5185 116.855 11.3407 117.63 11.3407C118.194 11.3407 118.714 11.443 119.201 11.6532C119.688 11.858 120.092 12.1436 120.419 12.51C120.38 11.7556 120.363 10.9796 120.363 10.1713V6.53925H122.4ZM119.771 17.4569C120.208 16.9935 120.43 16.3792 120.43 15.614C120.43 14.8595 120.208 14.2506 119.771 13.7872C119.334 13.3237 118.753 13.092 118.028 13.092C117.315 13.092 116.739 13.3237 116.302 13.7872C115.865 14.2506 115.643 14.8595 115.643 15.614C115.643 16.3684 115.859 16.9773 116.302 17.4462C116.739 17.915 117.315 18.1467 118.028 18.1467C118.753 18.1521 119.334 17.9204 119.771 17.4569Z" fill="white"/>
<path d="M132 12.3967C132.681 13.1134 133.024 14.0888 133.024 15.3175C133.024 15.5114 132.996 15.8294 132.947 16.2659H126.948C127.076 16.9125 127.374 17.4083 127.856 17.7532C128.337 18.0981 128.918 18.2759 129.61 18.2759C130.075 18.2759 130.484 18.2112 130.838 18.0819C131.193 17.9526 131.525 17.764 131.823 17.5053L132.687 18.7824C132.2 19.1597 131.696 19.4453 131.17 19.6285C130.645 19.8171 130.064 19.9141 129.427 19.9141C128.542 19.9141 127.756 19.7309 127.076 19.3644C126.395 18.998 125.864 18.4861 125.482 17.834C125.1 17.1766 124.912 16.4275 124.912 15.5869C124.912 14.7947 125.095 14.0726 125.465 13.426C125.836 12.7739 126.345 12.262 127.004 11.8848C127.662 11.5076 128.398 11.319 129.223 11.319C130.396 11.3244 131.32 11.68 132 12.3967ZM127.74 13.4691C127.341 13.814 127.076 14.299 126.954 14.9187H131.093C131.065 14.2882 130.883 13.7978 130.529 13.4583C130.18 13.1188 129.726 12.9464 129.178 12.9464C128.62 12.9464 128.138 13.1188 127.74 13.4691Z" fill="white"/>
<path d="M137.175 19.4242C136.516 19.0901 135.985 18.5944 135.57 17.9477C135.155 17.2957 134.95 16.5197 134.95 15.6198C134.95 14.7575 135.149 13.9977 135.542 13.3457C135.935 12.6936 136.472 12.1979 137.147 11.8476C137.822 11.5027 138.558 11.3249 139.36 11.3249C140.572 11.3249 141.607 11.6913 142.47 12.4188L141.48 13.7498C141.181 13.5074 140.877 13.3295 140.572 13.2217C140.268 13.114 139.914 13.0601 139.515 13.0601C138.801 13.0601 138.209 13.2972 137.734 13.7606C137.258 14.2294 137.02 14.8492 137.02 15.6144C137.02 16.3957 137.252 17.0155 137.722 17.4735C138.193 17.9369 138.774 18.1687 139.477 18.1687C139.914 18.1687 140.301 18.104 140.639 17.9693C140.976 17.8345 141.303 17.6244 141.612 17.328L142.642 18.659C142.155 19.0955 141.651 19.4189 141.131 19.6182C140.611 19.8176 139.991 19.92 139.266 19.92C138.525 19.9254 137.833 19.7583 137.175 19.4242Z" fill="white"/>
<path d="M152.159 19.5747V19.6825H149.796L146.797 16.2121V19.6825H144.755V6.53925H146.797V14.7679L149.569 11.54H151.876V11.6316L148.562 15.4846L152.159 19.5747Z" fill="white"/>
<path d="M154.211 9.50844C153.979 9.28211 153.862 9.0019 153.862 8.6624C153.862 8.32291 153.979 8.0373 154.211 7.81636C154.443 7.59003 154.753 7.47687 155.141 7.47687C155.528 7.47687 155.838 7.59003 156.07 7.82175C156.303 8.05347 156.419 8.33907 156.419 8.67857C156.419 9.00728 156.303 9.28211 156.065 9.50844C155.827 9.73477 155.522 9.84794 155.146 9.84794C154.748 9.84255 154.438 9.72938 154.211 9.50844ZM154.106 11.54H156.148V19.6825H154.106V11.54Z" fill="white"/>
<path d="M165.981 12.1704C166.484 12.7362 166.739 13.5445 166.739 14.59V19.6824H164.697V14.7732C164.697 13.6685 164.221 13.1134 163.275 13.1134C162.65 13.1134 162.152 13.3074 161.787 13.6954C161.416 14.0834 161.233 14.59 161.233 15.2097V19.6824H159.191V11.5399H160.58L160.995 12.8171C161.294 12.3644 161.681 12.0033 162.146 11.7285C162.617 11.4537 163.17 11.319 163.806 11.319C164.747 11.3244 165.472 11.61 165.981 12.1704Z" fill="white"/>
<path d="M177.999 11.5399V20.0111C177.999 21.2774 177.601 22.242 176.799 22.9156C175.996 23.5838 174.939 23.9179 173.611 23.9179C172.123 23.9179 170.861 23.503 169.826 22.6785L170.612 21.1804C171.426 21.8109 172.366 22.1289 173.44 22.1289C174.214 22.1289 174.823 21.951 175.266 21.6008C175.708 21.2451 175.93 20.7332 175.93 20.0488C175.93 19.4776 175.941 19.0411 175.969 18.7339C175.62 19.1004 175.205 19.3752 174.724 19.553C174.242 19.7362 173.733 19.8278 173.196 19.8278C172.411 19.8278 171.713 19.65 171.105 19.289C170.496 18.9279 170.026 18.4268 169.688 17.7855C169.351 17.1388 169.185 16.4114 169.185 15.5976C169.185 14.7839 169.351 14.0511 169.688 13.4098C170.026 12.7631 170.496 12.262 171.094 11.8955C171.691 11.5291 172.383 11.3459 173.158 11.3459C173.794 11.3459 174.38 11.4591 174.912 11.6908C175.443 11.9225 175.886 12.2674 176.234 12.7308L176.649 11.5453L177.999 11.5399ZM175.393 17.4137C175.819 16.9448 176.029 16.3413 176.029 15.5976C176.029 14.854 175.819 14.2504 175.404 13.7816C174.984 13.3128 174.397 13.0811 173.633 13.0811C172.909 13.0811 172.333 13.3128 171.907 13.7762C171.481 14.2397 171.271 14.8486 171.271 15.603C171.271 16.3467 171.481 16.9502 171.907 17.4191C172.333 17.8879 172.903 18.1196 173.611 18.1196C174.375 18.1142 174.973 17.8825 175.393 17.4137Z" fill="white"/>
<path d="M58.1841 25.2658V25.2982L55.5502 32.7455H55.3233L53.3147 27.9279C53.2317 27.7447 53.1321 27.4645 53.0104 27.0872C52.8665 27.5237 52.7724 27.8039 52.7171 27.9279L50.7084 32.7455H50.4871L47.8643 25.2928V25.2604H48.6279L50.31 30.1211C50.4594 30.5361 50.5812 30.9133 50.6697 31.2582C50.797 30.8217 50.9298 30.4444 51.0626 30.1319L52.8997 25.6538H53.11L54.8807 29.911C55.0743 30.3852 55.2403 30.8378 55.3731 31.2635C55.4561 30.9564 55.5945 30.5307 55.7881 29.9864L57.415 25.2604H58.1841V25.2658Z" fill="white"/>
<path d="M60.5133 32.4866C60.1259 32.271 59.8216 31.9693 59.6058 31.5867C59.39 31.1987 59.2793 30.7622 59.2793 30.2772C59.2793 29.7922 59.39 29.3503 59.6058 28.9677C59.8216 28.5797 60.1259 28.2833 60.5133 28.0678C60.9006 27.8522 61.3433 27.7444 61.8357 27.7444C62.3338 27.7444 62.782 27.8522 63.1693 28.0678C63.5566 28.2833 63.861 28.5851 64.0823 28.9677C64.3037 29.3557 64.4143 29.7922 64.4143 30.2772C64.4143 30.7676 64.3037 31.204 64.0823 31.5867C63.861 31.9746 63.5566 32.271 63.1693 32.4866C62.782 32.7021 62.3338 32.8099 61.8357 32.8099C61.3433 32.8153 60.9006 32.7021 60.5133 32.4866ZM63.1914 31.6567C63.5456 31.301 63.7171 30.843 63.7171 30.2826C63.7171 29.7221 63.5456 29.2641 63.197 28.9084C62.8484 28.5528 62.3946 28.3749 61.8357 28.3749C61.4761 28.3749 61.1551 28.4558 60.8729 28.6228C60.5907 28.7845 60.3694 29.0162 60.2089 29.3072C60.054 29.5982 59.971 29.9269 59.971 30.288C59.971 30.8484 60.1425 31.3064 60.4911 31.6621C60.8397 32.0178 61.2879 32.1956 61.8302 32.1956C62.3891 32.1902 62.8428 32.007 63.1914 31.6567Z" fill="white"/>
<path d="M67.7906 32.4866C67.4033 32.271 67.0989 31.9693 66.8831 31.5867C66.6673 31.1987 66.5566 30.7622 66.5566 30.2772C66.5566 29.7922 66.6673 29.3503 66.8831 28.9677C67.0989 28.5797 67.4033 28.2833 67.7906 28.0678C68.1779 27.8522 68.6206 27.7444 69.1131 27.7444C69.6111 27.7444 70.0593 27.8522 70.4466 28.0678C70.834 28.2833 71.1383 28.5851 71.3597 28.9677C71.581 29.3557 71.6917 29.7922 71.6917 30.2772C71.6917 30.7676 71.581 31.204 71.3597 31.5867C71.1383 31.9746 70.834 32.271 70.4466 32.4866C70.0593 32.7021 69.6111 32.8099 69.1131 32.8099C68.6206 32.8153 68.1779 32.7021 67.7906 32.4866ZM70.4688 31.6567C70.8229 31.301 70.9945 30.843 70.9945 30.2826C70.9945 29.7221 70.8229 29.2641 70.4743 28.9084C70.1257 28.5528 69.672 28.3749 69.1131 28.3749C68.7534 28.3749 68.4325 28.4558 68.1503 28.6228C67.8681 28.7845 67.6467 29.0162 67.4863 29.3072C67.3313 29.5982 67.2483 29.9269 67.2483 30.288C67.2483 30.8484 67.4199 31.3064 67.7685 31.6621C68.1171 32.0178 68.5653 32.1956 69.1076 32.1956C69.6664 32.1902 70.1202 32.007 70.4688 31.6567Z" fill="white"/>
<path d="M78.9007 24.8627V32.6926H78.375L78.2754 31.8304C78.0651 32.1375 77.794 32.3746 77.462 32.5471C77.13 32.7195 76.7482 32.8058 76.3221 32.8058C75.8351 32.8058 75.4035 32.698 75.0273 32.477C74.651 32.2561 74.3577 31.9543 74.1474 31.5717C73.9372 31.1837 73.832 30.7472 73.832 30.2622C73.832 29.788 73.9372 29.3623 74.153 28.9851C74.3632 28.6079 74.6621 28.3115 75.0383 28.0959C75.4146 27.8804 75.8462 27.7726 76.3221 27.7726C76.726 27.7726 77.0968 27.8535 77.4343 28.0205C77.7718 28.1876 78.0374 28.4085 78.2422 28.6941C78.2256 28.1391 78.2201 27.7026 78.2201 27.3846V24.8734H78.9007V24.8627ZM77.7276 31.6418C78.0651 31.2861 78.2367 30.8335 78.2367 30.2838C78.2367 29.7288 78.0651 29.2761 77.7165 28.9258C77.3679 28.5702 76.9197 28.3977 76.3663 28.3977C75.8185 28.3977 75.3759 28.5755 75.0328 28.9258C74.6897 29.2815 74.5182 29.7341 74.5182 30.2838C74.5182 30.8388 74.6897 31.2915 75.0328 31.6418C75.3759 31.9974 75.8241 32.1699 76.3663 32.1699C76.9363 32.1645 77.39 31.9867 77.7276 31.6418Z" fill="white"/>
<path d="M85.7841 28.4556H84.7549V27.8683H85.7841V26.4833C85.7841 25.9714 85.9224 25.5565 86.1936 25.2277C86.4647 24.899 86.8631 24.7374 87.3888 24.7374C87.6433 24.7374 87.8702 24.7697 88.0694 24.8398C88.2686 24.9098 88.4678 25.0176 88.667 25.1631L88.3516 25.6427C88.2022 25.5457 88.0583 25.4756 87.9255 25.4271C87.7927 25.3786 87.6378 25.3571 87.4663 25.3571C87.1619 25.3571 86.9185 25.4541 86.7359 25.6481C86.5588 25.8421 86.4647 26.1169 86.4647 26.4833V27.8683H88.0916V28.4556H86.4647V32.6912H85.7786V28.4556H85.7841Z" fill="white"/>
<path d="M90.8756 32.4866C90.4882 32.271 90.1839 31.9693 89.9681 31.5867C89.7523 31.1987 89.6416 30.7676 89.6416 30.2772C89.6416 29.7868 89.7523 29.3503 89.9681 28.9677C90.1839 28.5797 90.4882 28.2833 90.8756 28.0678C91.2629 27.8522 91.7056 27.7444 92.198 27.7444C92.6961 27.7444 93.1443 27.8522 93.5316 28.0678C93.9189 28.2833 94.2233 28.5851 94.4446 28.9677C94.666 29.3557 94.7766 29.7922 94.7766 30.2772C94.7766 30.7676 94.666 31.204 94.4446 31.5867C94.2233 31.9746 93.9189 32.271 93.5316 32.4866C93.1443 32.7021 92.6961 32.8099 92.198 32.8099C91.7056 32.8153 91.2684 32.7021 90.8756 32.4866ZM93.5593 31.6567C93.9079 31.301 94.0849 30.843 94.0849 30.2826C94.0849 29.7221 93.9134 29.2641 93.5648 28.9084C93.2162 28.5528 92.7625 28.3749 92.2036 28.3749C91.8439 28.3749 91.523 28.4558 91.2408 28.6228C90.9586 28.7845 90.7372 29.0162 90.5768 29.3072C90.4218 29.5982 90.3388 29.9269 90.3388 30.288C90.3388 30.8484 90.5103 31.3064 90.859 31.6621C91.2076 32.0178 91.6558 32.1956 92.198 32.1956C92.7514 32.1902 93.2051 32.007 93.5593 31.6567Z" fill="white"/>
<path d="M100.182 27.9325L99.9832 28.5199C99.7508 28.4391 99.5295 28.4013 99.3192 28.4013C98.9097 28.4013 98.5777 28.5361 98.3342 28.8001C98.0852 29.0642 97.9635 29.4306 97.9635 29.8994V32.6962H97.2773V27.8678H97.7919L97.9248 28.5792C98.2236 28.0403 98.705 27.7708 99.369 27.7708C99.6678 27.7655 99.9389 27.8247 100.182 27.9325Z" fill="white"/>
<path d="M105.811 24.8627H106.497L106.508 32.6926H105.822L105.811 24.8627Z" fill="white"/>
<path d="M109.347 26.4559C109.247 26.3589 109.203 26.2512 109.203 26.1165C109.203 25.971 109.247 25.8524 109.341 25.7554C109.436 25.6584 109.563 25.6153 109.718 25.6153C109.873 25.6153 110 25.6638 110.094 25.7554C110.188 25.8524 110.232 25.971 110.232 26.1165C110.232 26.2566 110.183 26.3697 110.088 26.4613C109.989 26.5529 109.867 26.5961 109.718 26.5961C109.568 26.6014 109.441 26.5529 109.347 26.4559ZM109.369 27.8678H110.055V32.6962H109.369V27.8678Z" fill="white"/>
<path d="M113.269 28.4556H112.24V27.8683H113.269V26.4833C113.269 25.9714 113.408 25.5565 113.679 25.2277C113.95 24.899 114.348 24.7374 114.874 24.7374C115.129 24.7374 115.356 24.7697 115.555 24.8398C115.754 24.9098 115.953 25.0176 116.152 25.1631L115.837 25.6427C115.688 25.5457 115.544 25.4756 115.411 25.4271C115.278 25.3786 115.123 25.3571 114.952 25.3571C114.647 25.3571 114.404 25.4541 114.221 25.6481C114.044 25.8421 113.95 26.1169 113.95 26.4833V27.8683H115.577V28.4556H113.95V32.6912H113.264V28.4556H113.269Z" fill="white"/>
<path d="M121.238 28.3801C121.631 28.8004 121.824 29.3716 121.824 30.083C121.824 30.2285 121.813 30.3847 121.791 30.5518H117.824C117.873 31.0529 118.078 31.4517 118.427 31.7481C118.775 32.0445 119.19 32.19 119.672 32.19C120.009 32.19 120.291 32.1415 120.529 32.0445C120.767 31.9475 120.983 31.7966 121.188 31.6026L121.581 32.0822C121.055 32.5726 120.424 32.8151 119.688 32.8151C119.196 32.8151 118.753 32.7073 118.366 32.4917C117.978 32.2762 117.674 31.9744 117.458 31.5918C117.243 31.2038 117.132 30.7673 117.132 30.2716C117.132 29.8081 117.237 29.3824 117.453 28.9998C117.663 28.6172 117.962 28.3154 118.344 28.0891C118.725 27.8628 119.157 27.7496 119.633 27.7496C120.308 27.7442 120.845 27.9598 121.238 28.3801ZM118.438 28.8058C118.111 29.0968 117.907 29.4848 117.835 29.9644H121.155C121.138 29.4632 120.994 29.0699 120.718 28.7896C120.441 28.5094 120.076 28.3693 119.616 28.3693C119.157 28.3693 118.764 28.5148 118.438 28.8058Z" fill="white"/>
<path d="M124.436 32.6646C124.331 32.5784 124.281 32.4544 124.281 32.2928C124.281 32.1257 124.331 31.9964 124.431 31.9102C124.53 31.8239 124.658 31.7808 124.807 31.7808C124.951 31.7808 125.073 31.8239 125.178 31.9102C125.283 31.9964 125.333 32.1257 125.333 32.2928C125.333 32.4544 125.283 32.5784 125.178 32.6646C125.073 32.7508 124.951 32.7939 124.807 32.7939C124.663 32.8047 124.541 32.7562 124.436 32.6646Z" fill="white"/>
</svg>
