<svg width="35" height="36" viewBox="0 0 35 36" fill="none" xmlns="http://www.w3.org/2000/svg">
<rect x="0.785156" y="0.892578" width="34.2151" height="34.2151" rx="17.1075" fill="#B50717"/>
<rect x="0.785156" y="0.892578" width="34.2151" height="34.2151" rx="17.1075" stroke="#B50717"/>
<path fill-rule="evenodd" clip-rule="evenodd" d="M15.2629 13.3702C15.0804 12.9333 14.9421 12.9167 14.6657 12.9055C14.5716 12.9 14.4668 12.8946 14.3505 12.8946C13.9909 12.8946 13.6149 12.9997 13.3881 13.232C13.1117 13.5141 12.4259 14.1723 12.4259 15.522C12.4259 16.8717 13.4101 18.1771 13.5429 18.3598C13.6812 18.5421 15.4619 21.3522 18.2269 22.4975C20.3891 23.3936 21.0307 23.3105 21.5227 23.2056C22.2416 23.0507 23.143 22.5194 23.3699 21.878C23.5966 21.2362 23.5966 20.6886 23.5301 20.5725C23.4638 20.4563 23.2812 20.3902 23.0048 20.2517C22.7284 20.1133 21.3845 19.4495 21.1302 19.361C20.8813 19.2671 20.6436 19.3003 20.4557 19.5658C20.1902 19.9365 19.9304 20.3127 19.7201 20.5394C19.5543 20.7164 19.2832 20.7386 19.0565 20.6445C18.7523 20.5175 17.9008 20.2184 16.8501 19.2837C16.0371 18.5592 15.4841 17.6577 15.3239 17.3866C15.1635 17.11 15.3073 16.9495 15.4344 16.8003C15.5728 16.6287 15.7054 16.5071 15.8436 16.3466C15.9819 16.1862 16.0593 16.1033 16.1478 15.9151C16.2419 15.7326 16.1754 15.5445 16.1091 15.4061C16.0426 15.2675 15.4897 13.9177 15.2629 13.3702ZM17.8897 8.59082C12.7027 8.59082 8.4834 12.8113 8.4834 17.9998C8.4834 20.0575 9.14704 21.9659 10.2751 23.5147L9.10264 27.0107L12.7193 25.8548C14.2068 26.8394 15.9819 27.4091 17.8953 27.4091C23.0824 27.4091 27.3017 23.1884 27.3017 18.0001C27.3017 12.8116 23.0824 8.59111 17.8953 8.59111H17.8899V8.59082H17.8897Z" fill="white"/>
</svg>
