<svg width="26" height="26" viewBox="0 0 26 26" fill="none" xmlns="http://www.w3.org/2000/svg">
<circle cx="13" cy="13" r="13" fill="#25D366"/>
<path d="M13.0248 6.50004C9.47575 6.50004 6.58325 9.39254 6.58325 12.9415C6.58325 14.079 6.88225 15.184 7.44125 16.159L6.53125 19.5L9.94375 18.603C10.8863 19.1165 11.9458 19.3895 13.0248 19.3895C16.5738 19.3895 19.4663 16.497 19.4663 12.948C19.4663 11.2255 18.7968 9.60704 17.5813 8.39154C16.9853 7.78959 16.2755 7.31232 15.4932 6.98757C14.7109 6.66282 13.8718 6.49709 13.0248 6.50004ZM13.0313 7.58554C14.4613 7.58554 15.8003 8.14454 16.8143 9.15854C17.3119 9.65602 17.7064 10.2468 17.9753 10.8971C18.2441 11.5474 18.3819 12.2444 18.3808 12.948C18.3808 15.899 15.9757 18.2975 13.0248 18.2975C12.0628 18.2975 11.1203 18.044 10.3013 17.55L10.1063 17.4395L8.07825 17.9725L8.61775 15.9965L8.48775 15.7885C7.95081 14.9362 7.66681 13.9489 7.66875 12.9415C7.67525 9.99054 10.0738 7.58554 13.0313 7.58554ZM10.7432 9.96454C10.6392 9.96454 10.4638 10.0035 10.3142 10.166C10.1713 10.3285 9.74875 10.725 9.74875 11.5115C9.74875 12.3045 10.3273 13.065 10.3988 13.1755C10.4898 13.286 11.5428 14.911 13.1613 15.6C13.5448 15.7755 13.8438 15.873 14.0778 15.9445C14.4613 16.068 14.8123 16.0485 15.0918 16.0095C15.4038 15.964 16.0407 15.6195 16.1772 15.2425C16.3138 14.8655 16.3138 14.547 16.2748 14.4755C16.2293 14.4105 16.1252 14.3715 15.9628 14.3C15.8003 14.209 15.0072 13.819 14.8643 13.767C14.7148 13.715 14.6238 13.689 14.5003 13.845C14.3963 14.0075 14.0842 14.3715 13.9932 14.4755C13.8958 14.586 13.8048 14.599 13.6488 14.521C13.4798 14.4365 12.9598 14.2675 12.3488 13.7215C11.8678 13.2925 11.5493 12.766 11.4518 12.6035C11.3738 12.4475 11.4453 12.35 11.5232 12.2785C11.5947 12.207 11.6988 12.09 11.7638 11.9925C11.8483 11.9015 11.8743 11.83 11.9263 11.726C11.9783 11.6155 11.9523 11.5245 11.9132 11.4465C11.8742 11.375 11.5493 10.569 11.4128 10.2505C11.2828 9.93854 11.1528 9.97754 11.0487 9.97104C10.9578 9.97104 10.8537 9.96454 10.7432 9.96454Z" fill="white"/>
</svg>
