<svg width="21" height="21" viewBox="0 0 21 21" fill="none" xmlns="http://www.w3.org/2000/svg">
<path d="M10.2709 1.70611C5.61382 1.70611 1.81824 5.50169 1.81824 10.1588C1.81824 11.6514 2.21059 13.1014 2.94412 14.3808L1.75 18.7649L6.22794 17.5879C7.46471 18.2617 8.855 18.6199 10.2709 18.6199C14.9279 18.6199 18.7235 14.8243 18.7235 10.1673C18.7235 7.90699 17.845 5.78316 16.25 4.18816C15.468 3.39828 14.5366 2.772 13.51 2.34585C12.4835 1.91971 11.3824 1.70223 10.2709 1.70611ZM10.2794 3.13052C12.1559 3.13052 13.9129 3.86405 15.2435 5.19463C15.8965 5.84744 16.4143 6.62273 16.767 7.47605C17.1198 8.32937 17.3006 9.24393 17.2991 10.1673C17.2991 14.0396 14.1432 17.187 10.2709 17.187C9.00853 17.187 7.77176 16.8543 6.69706 16.2061L6.44118 16.0611L3.78 16.7605L4.48794 14.1676L4.31735 13.8946C3.61277 12.7761 3.2401 11.4807 3.24265 10.1588C3.25118 6.2864 6.39853 3.13052 10.2794 3.13052ZM7.27706 6.25228C7.14059 6.25228 6.91029 6.30346 6.71412 6.51669C6.52647 6.72993 5.97206 7.25022 5.97206 8.28228C5.97206 9.32287 6.73118 10.3208 6.825 10.4658C6.94441 10.6108 8.32618 12.7432 10.45 13.6473C10.9532 13.8776 11.3456 14.0055 11.6526 14.0993C12.1559 14.2614 12.6165 14.2358 12.9832 14.1846C13.3926 14.1249 14.2285 13.6729 14.4076 13.1782C14.5868 12.6835 14.5868 12.2655 14.5356 12.1717C14.4759 12.0864 14.3394 12.0352 14.1262 11.9414C13.9129 11.822 12.8724 11.3102 12.6847 11.242C12.4885 11.1738 12.3691 11.1396 12.2071 11.3443C12.0706 11.5576 11.6612 12.0352 11.5418 12.1717C11.4138 12.3167 11.2944 12.3338 11.0897 12.2314C10.8679 12.1205 10.1856 11.8988 9.38382 11.1823C8.75265 10.6193 8.33471 9.92846 8.20676 9.71522C8.10441 9.51052 8.19823 9.38258 8.30059 9.28875C8.39441 9.19493 8.53088 9.0414 8.61618 8.91346C8.72706 8.79405 8.76118 8.70022 8.82941 8.56375C8.89765 8.41875 8.86353 8.29934 8.81235 8.19699C8.76118 8.10316 8.33471 7.04552 8.15559 6.62758C7.985 6.21816 7.81441 6.26934 7.67794 6.26081C7.55853 6.26081 7.42206 6.25228 7.27706 6.25228Z" fill="#25D366"/>
</svg>
